<?xml version="1.0" standalone="no"?>
<!DOCTYPE svg PUBLIC "-//W3C//DTD SVG 1.1//EN"
"http://www.w3.org/Graphics/SVG/1.1/DTD/svg11.dtd">
<svg width="505.134" height="304.819" viewBox="0 0 10523.6 6350.39" version="1.1"
xmlns="http://www.w3.org/2000/svg"
xmlns:xlink="http://www.w3.org/1999/xlink">
<g fill-rule="evenodd"><path d="M 9.09495e-13,6350.39 L 9.09495e-13,0 L 10523.6,0 L 10523.6,6350.39 L 9.09495e-13,6350.39 z " style="fill-opacity:0.200000;fill:rgb(103,198,105);"/></g>
<polyline points="33.4636,6285.43 33.4636,64.9603 34.0696,58.8143 35.8616,52.9063 38.7716,47.4623 42.6876,42.6883 47.4616,38.7723 52.9076,35.8603 58.8156,34.0683 64.9596,33.4643 10458.7,33.4643 10464.8,34.0683 10470.7,35.8603 10476.2,38.7723 10480.9,42.6883 10484.8,47.4623 10487.8,52.9063 10489.6,58.8143 10490.2,64.9603 10490.2,6285.43 10489.6,6291.58 10487.8,6297.48 10484.8,6302.93 10480.9,6307.7 10476.2,6311.62 10470.7,6314.53 10464.8,6316.32 10458.7,6316.93 64.9596,6316.93 58.8156,6316.32 52.9076,6314.53 47.4616,6311.62 42.6876,6307.7 38.7716,6302.93 35.8616,6297.48 34.0696,6291.58 33.4636,6285.43" style="stroke:rgb(103,198,105);stroke-width:62.992126;fill:none;stroke-opacity:0.5;stroke-linecap:round;stroke-linejoin:round;;fill:none"/>
<polyline points="33.4636,6285.43 33.4636,64.9603 34.0696,58.8143 35.8616,52.9063 38.7716,47.4623 42.6876,42.6883 47.4616,38.7723 52.9076,35.8603 58.8156,34.0683 64.9596,33.4643 10458.7,33.4643 10464.8,34.0683 10470.7,35.8603 10476.2,38.7723 10480.9,42.6883 10484.8,47.4623 10487.8,52.9063 10489.6,58.8143 10490.2,64.9603 10490.2,6285.43 10489.6,6291.58 10487.8,6297.48 10484.8,6302.93 10480.9,6307.7 10476.2,6311.62 10470.7,6314.53 10464.8,6316.32 10458.7,6316.93 64.9596,6316.93 58.8156,6316.32 52.9076,6314.53 47.4616,6311.62 42.6876,6307.7 38.7716,6302.93 35.8616,6297.48 34.0696,6291.58 33.4636,6285.43" style="stroke:rgb(0,0,0);stroke-width:1px;fill:none;stroke-opacity:1;stroke-linecap:round;stroke-linejoin:round;;fill:none"/>
<g fill-rule="evenodd"><path d="M 64.9606,6285.43 L 64.9606,64.9606 L 10458.7,64.9606 L 10458.7,6285.43 L 64.9606,6285.43 z " style="fill-opacity:1.000000;fill:rgb(103,198,105);stroke:rgb(0,0,0);stroke-width:2"/></g>
</svg>
