M48
; DRILL file {KiCad 5.1.7-a382d34a8~88~ubuntu18.04.1} date Wed Mar 10 09:37:06 2021
; FORMAT={-:-/ absolute / inch / decimal}
; #@! TF.CreationDate,2021-03-10T09:37:06+00:00
; #@! TF.GenerationSoftware,Kicad,Pcbnew,5.1.7-a382d34a8~88~ubuntu18.04.1
; #@! TF.FileFunction,Plated,1,2,PTH
FMAT,2
INCH
T1C0.0315
T2C0.0394
T3C0.0433
%
G90
G05
T1
X6.1417Y-2.1969
X6.1417Y-2.6969
X4.8819Y-2.2165
X4.8819Y-2.7165
X7.7362Y-2.4528
X7.7362Y-2.9528
X6.4764Y-2.4528
X6.4764Y-2.9528
X4.311Y-2.2165
X4.311Y-2.7165
X6.811Y-2.1969
X6.811Y-2.6969
X5.1969Y-2.4528
X5.1969Y-2.9528
X3.7008Y-2.2362
X3.7008Y-2.7362
X5.8268Y-2.4528
X5.8268Y-2.9528
X4.6063Y-2.4528
X4.6063Y-2.9528
X3.0709Y-2.2244
X3.0709Y-2.7244
X3.3858Y-2.4409
X3.3858Y-2.9409
X3.9961Y-2.4528
X3.9961Y-2.9528
X7.126Y-2.4528
X7.126Y-2.9528
X5.4921Y-2.2165
X5.4921Y-2.7165
X7.4213Y-2.1969
X7.4213Y-2.6969
T2
X2.874Y-2.4409
X2.8992Y-4.0967
X2.9921Y-2.0768
X3.189Y-3.8189
X3.607Y-3.6047
X3.8331Y-3.8276
X4.5669Y-3.8583
X4.7726Y-4.0701
X5.4226Y-3.6144
X5.6633Y-3.7901
X6.3567Y-3.8484
X6.5853Y-4.0739
X3.0587Y-4.1331
X3.0587Y-4.2331
X3.1587Y-4.1331
X3.1587Y-4.2331
X3.2587Y-4.1331
X3.2587Y-4.2331
X3.3587Y-4.1331
X3.3587Y-4.2331
X3.4587Y-4.1331
X3.4587Y-4.2331
X3.5587Y-4.1331
X3.5587Y-4.2331
X3.6587Y-4.1331
X3.6587Y-4.2331
X3.7587Y-4.1331
X3.7587Y-4.2331
X3.8587Y-4.1331
X3.8587Y-4.2331
X3.1563Y-4.4976
X2.9579Y-4.4996
X3.0606Y-1.7732
X3.0606Y-1.8732
X3.1606Y-1.7732
X3.1606Y-1.8732
X3.2606Y-1.7732
X3.2606Y-1.8732
X3.3606Y-1.7732
X3.3606Y-1.8732
X3.4606Y-1.7732
X3.4606Y-1.8732
X3.5606Y-1.7732
X3.5606Y-1.8732
X3.6606Y-1.7732
X3.6606Y-1.8732
X3.7606Y-1.7732
X3.7606Y-1.8732
X3.8606Y-1.7732
X3.8606Y-1.8732
T3
X5.0953Y-3.1102
X5.1953Y-3.1102
X5.2953Y-3.1102
X6.7126Y-2.9134
X6.8126Y-2.9134
X6.9126Y-2.9134
X6.1417Y-3.0512
X6.1417Y-3.4512
X3.6024Y-2.9134
X3.7024Y-2.9134
X3.8024Y-2.9134
X7.4213Y-3.0512
X7.4213Y-3.4512
X4.2126Y-2.9134
X4.3126Y-2.9134
X4.4126Y-2.9134
X7.3228Y-2.9134
X7.4228Y-2.9134
X7.5228Y-2.9134
X5.1969Y-3.3268
X5.1969Y-3.7268
X6.0433Y-2.9134
X6.1433Y-2.9134
X6.2433Y-2.9134
X5.7252Y-3.1102
X5.8252Y-3.1102
X5.9252Y-3.1102
X6.811Y-3.0512
X6.811Y-3.4512
X3.9173Y-3.1102
X4.0173Y-3.1102
X4.1173Y-3.1102
X7.6378Y-3.1102
X7.7378Y-3.1102
X7.8378Y-3.1102
X4.5047Y-3.1102
X4.6047Y-3.1102
X4.7047Y-3.1102
X3.0709Y-3.0646
X3.0709Y-3.4646
X3.2843Y-3.1102
X3.3843Y-3.1102
X3.4843Y-3.1102
X4.311Y-3.0512
X4.311Y-3.4512
X7.126Y-3.3205
X7.126Y-3.7205
X5.8268Y-3.3205
X5.8268Y-3.7205
X7.026Y-3.1102
X7.126Y-3.1102
X7.226Y-3.1102
X2.9724Y-2.9134
X3.0724Y-2.9134
X3.1724Y-2.9134
X4.0157Y-3.3268
X4.0157Y-3.7268
X7.7362Y-3.3268
X7.7362Y-3.7268
X6.4764Y-3.3205
X6.4764Y-3.7205
X5.3937Y-2.9134
X5.4937Y-2.9134
X5.5937Y-2.9134
X5.4921Y-3.0512
X5.4921Y-3.4512
X4.8819Y-3.0512
X4.8819Y-3.4512
X3.7008Y-3.0646
X3.7008Y-3.4646
X4.6063Y-3.3205
X4.6063Y-3.7205
X4.7835Y-2.9134
X4.8835Y-2.9134
X4.9835Y-2.9134
X6.3748Y-3.1102
X6.4748Y-3.1102
X6.5748Y-3.1102
X3.3858Y-3.3205
X3.3858Y-3.7205
T0
M30
