<?xml version="1.0" standalone="no"?>
<!DOCTYPE svg PUBLIC "-//W3C//DTD SVG 1.1//EN"
"http://www.w3.org/Graphics/SVG/1.1/DTD/svg11.dtd">
<svg width="505.134" height="304.819" viewBox="0 0 10523.6 6350.39" version="1.1"
xmlns="http://www.w3.org/2000/svg"
xmlns:xlink="http://www.w3.org/1999/xlink">
<circle cx="10025.5" cy="2820.95" r="31.5" style=""/>
<circle cx="10025.5" cy="1820.95" r="31.5" style=""/>
<circle cx="9395.75" cy="1309.15" r="31.5" style=""/>
<circle cx="8805.15" cy="1820.95" r="31.5" style=""/>
<circle cx="9395.75" cy="2309.15" r="31.5" style=""/>
<circle cx="8805.15" cy="2820.95" r="31.5" style=""/>
<circle cx="8175.15" cy="2309.15" r="31.5" style=""/>
<circle cx="7505.95" cy="2820.95" r="31.5" style=""/>
<circle cx="6836.55" cy="2309.15" r="31.5" style=""/>
<circle cx="6206.75" cy="2820.95" r="31.5" style=""/>
<circle cx="5537.35" cy="2348.35" r="31.5" style=""/>
<circle cx="4946.95" cy="2820.95" r="31.5" style=""/>
<circle cx="4316.95" cy="2348.35" r="31.5" style=""/>
<circle cx="3765.75" cy="2820.95" r="31.5" style=""/>
<circle cx="3175.15" cy="2348.35" r="31.5" style=""/>
<circle cx="2545.35" cy="2820.95" r="31.5" style=""/>
<circle cx="1954.75" cy="2387.75" r="31.5" style=""/>
<circle cx="1324.75" cy="2797.15" r="31.5" style=""/>
<circle cx="694.95" cy="2364.15" r="31.5" style=""/>
<circle cx="694.95" cy="1364.15" r="31.5" style=""/>
<circle cx="1324.75" cy="1797.15" r="31.5" style=""/>
<circle cx="1954.75" cy="1387.75" r="31.5" style=""/>
<circle cx="2545.35" cy="1820.95" r="31.5" style=""/>
<circle cx="3175.15" cy="1348.35" r="31.5" style=""/>
<circle cx="3765.75" cy="1820.95" r="31.5" style=""/>
<circle cx="4316.95" cy="1348.35" r="31.5" style=""/>
<circle cx="4946.95" cy="1820.95" r="31.5" style=""/>
<circle cx="5537.35" cy="1348.35" r="31.5" style=""/>
<circle cx="6206.75" cy="1820.95" r="31.5" style=""/>
<circle cx="6836.55" cy="1309.15" r="31.5" style=""/>
<circle cx="7505.95" cy="1820.95" r="31.5" style=""/>
<circle cx="8175.15" cy="1309.15" r="31.5" style=""/>
<circle cx="7723.75" cy="5063.15" r="39.4" style=""/>
<circle cx="7266.55" cy="4612.15" r="39.4" style=""/>
<circle cx="5879.75" cy="4495.55" r="39.4" style=""/>
<circle cx="5398.35" cy="4144.15" r="39.4" style=""/>
<circle cx="4098.35" cy="5055.55" r="39.4" style=""/>
<circle cx="3686.95" cy="4631.95" r="39.4" style=""/>
<circle cx="2270.55" cy="5381.55" r="39.4" style=""/>
<circle cx="2070.55" cy="5381.55" r="39.4" style=""/>
<circle cx="1870.55" cy="5381.55" r="39.4" style=""/>
<circle cx="1670.55" cy="5381.55" r="39.4" style=""/>
<circle cx="1470.55" cy="5381.55" r="39.4" style=""/>
<circle cx="1270.55" cy="5381.55" r="39.4" style=""/>
<circle cx="1070.55" cy="5381.55" r="39.4" style=""/>
<circle cx="865.75" cy="5910.55" r="39.4" style=""/>
<circle cx="468.95" cy="5914.55" r="39.4" style=""/>
<circle cx="870.55" cy="5381.55" r="39.4" style=""/>
<circle cx="670.55" cy="5381.55" r="39.4" style=""/>
<circle cx="670.55" cy="5181.55" r="39.4" style=""/>
<circle cx="870.55" cy="5181.55" r="39.4" style=""/>
<circle cx="1070.55" cy="5181.55" r="39.4" style=""/>
<circle cx="1270.55" cy="5181.55" r="39.4" style=""/>
<circle cx="1470.55" cy="5181.55" r="39.4" style=""/>
<circle cx="1670.55" cy="5181.55" r="39.4" style=""/>
<circle cx="1870.55" cy="5181.55" r="39.4" style=""/>
<circle cx="2070.55" cy="5181.55" r="39.4" style=""/>
<circle cx="2270.55" cy="5181.55" r="39.4" style=""/>
<circle cx="2219.35" cy="4570.55" r="39.4" style=""/>
<circle cx="1767.15" cy="4124.75" r="39.4" style=""/>
<circle cx="931.15" cy="4553.15" r="39.4" style=""/>
<circle cx="351.55" cy="5108.75" r="39.4" style=""/>
<circle cx="301.15" cy="1797.15" r="39.4" style=""/>
<circle cx="537.35" cy="1068.95" r="39.4" style=""/>
<circle cx="674.35" cy="661.754" r="39.4" style=""/>
<circle cx="674.35" cy="461.754" r="39.4" style=""/>
<circle cx="874.35" cy="461.754" r="39.4" style=""/>
<circle cx="874.35" cy="661.754" r="39.4" style=""/>
<circle cx="1074.35" cy="461.754" r="39.4" style=""/>
<circle cx="1274.35" cy="461.754" r="39.4" style=""/>
<circle cx="1074.35" cy="661.754" r="39.4" style=""/>
<circle cx="1274.35" cy="661.754" r="39.4" style=""/>
<circle cx="1474.35" cy="461.754" r="39.4" style=""/>
<circle cx="1474.35" cy="661.754" r="39.4" style=""/>
<circle cx="1674.35" cy="461.754" r="39.4" style=""/>
<circle cx="1674.35" cy="661.754" r="39.4" style=""/>
<circle cx="1874.35" cy="461.754" r="39.4" style=""/>
<circle cx="1874.35" cy="661.754" r="39.4" style=""/>
<circle cx="2074.35" cy="461.754" r="39.4" style=""/>
<circle cx="2274.35" cy="461.754" r="39.4" style=""/>
<circle cx="2074.35" cy="661.754" r="39.4" style=""/>
<circle cx="2274.35" cy="661.754" r="39.4" style=""/>
<circle cx="10025.5" cy="4368.95" r="43.3" style=""/>
<circle cx="10025.5" cy="3568.95" r="43.3" style=""/>
<circle cx="10228.7" cy="3135.75" r="43.3" style=""/>
<circle cx="10028.7" cy="3135.75" r="43.3" style=""/>
<circle cx="9828.75" cy="3135.75" r="43.3" style=""/>
<circle cx="9598.75" cy="2742.15" r="43.3" style=""/>
<circle cx="9398.75" cy="2742.15" r="43.3" style=""/>
<circle cx="9198.75" cy="2742.15" r="43.3" style=""/>
<circle cx="9395.75" cy="3017.75" r="43.3" style=""/>
<circle cx="9005.15" cy="3135.75" r="43.3" style=""/>
<circle cx="8805.15" cy="3135.75" r="43.3" style=""/>
<circle cx="8605.15" cy="3135.75" r="43.3" style=""/>
<circle cx="8805.15" cy="3556.35" r="43.3" style=""/>
<circle cx="9395.75" cy="3817.75" r="43.3" style=""/>
<circle cx="8805.15" cy="4356.35" r="43.3" style=""/>
<circle cx="8175.15" cy="3817.75" r="43.3" style=""/>
<circle cx="7505.95" cy="4356.35" r="43.3" style=""/>
<circle cx="6836.55" cy="3817.75" r="43.3" style=""/>
<circle cx="6206.75" cy="4356.35" r="43.3" style=""/>
<circle cx="6206.75" cy="3556.35" r="43.3" style=""/>
<circle cx="5537.35" cy="3817.75" r="43.3" style=""/>
<circle cx="4946.95" cy="4368.95" r="43.3" style=""/>
<circle cx="4946.95" cy="3568.95" r="43.3" style=""/>
<circle cx="4316.95" cy="3817.75" r="43.3" style=""/>
<circle cx="3765.75" cy="4356.35" r="43.3" style=""/>
<circle cx="3765.75" cy="3556.35" r="43.3" style=""/>
<circle cx="3175.15" cy="3817.75" r="43.3" style=""/>
<circle cx="2584.55" cy="4368.95" r="43.3" style=""/>
<circle cx="2584.55" cy="3568.95" r="43.3" style=""/>
<circle cx="1954.75" cy="3844.55" r="43.3" style=""/>
<circle cx="1324.75" cy="4356.35" r="43.3" style=""/>
<circle cx="694.95" cy="3844.55" r="43.3" style=""/>
<circle cx="1324.75" cy="3556.35" r="43.3" style=""/>
<circle cx="694.95" cy="3044.55" r="43.3" style=""/>
<circle cx="497.95" cy="2742.15" r="43.3" style=""/>
<circle cx="697.95" cy="2742.15" r="43.3" style=""/>
<circle cx="897.95" cy="2742.15" r="43.3" style=""/>
<circle cx="1121.75" cy="3135.75" r="43.3" style=""/>
<circle cx="1321.75" cy="3135.75" r="43.3" style=""/>
<circle cx="1521.75" cy="3135.75" r="43.3" style=""/>
<circle cx="1954.75" cy="3044.55" r="43.3" style=""/>
<circle cx="1757.95" cy="2742.15" r="43.3" style=""/>
<circle cx="1957.95" cy="2742.15" r="43.3" style=""/>
<circle cx="2157.95" cy="2742.15" r="43.3" style=""/>
<circle cx="2387.75" cy="3135.75" r="43.3" style=""/>
<circle cx="2587.75" cy="3135.75" r="43.3" style=""/>
<circle cx="2787.75" cy="3135.75" r="43.3" style=""/>
<circle cx="2978.35" cy="2742.15" r="43.3" style=""/>
<circle cx="3178.35" cy="2742.15" r="43.3" style=""/>
<circle cx="3378.35" cy="2742.15" r="43.3" style=""/>
<circle cx="3175.15" cy="3017.75" r="43.3" style=""/>
<circle cx="3562.55" cy="3135.75" r="43.3" style=""/>
<circle cx="3762.55" cy="3135.75" r="43.3" style=""/>
<circle cx="3962.55" cy="3135.75" r="43.3" style=""/>
<circle cx="4316.95" cy="3017.75" r="43.3" style=""/>
<circle cx="4120.15" cy="2742.15" r="43.3" style=""/>
<circle cx="4320.15" cy="2742.15" r="43.3" style=""/>
<circle cx="4520.15" cy="2742.15" r="43.3" style=""/>
<circle cx="4743.75" cy="3135.75" r="43.3" style=""/>
<circle cx="4943.75" cy="3135.75" r="43.3" style=""/>
<circle cx="5143.75" cy="3135.75" r="43.3" style=""/>
<circle cx="5537.35" cy="3017.75" r="43.3" style=""/>
<circle cx="5340.55" cy="2742.15" r="43.3" style=""/>
<circle cx="5540.55" cy="2742.15" r="43.3" style=""/>
<circle cx="5740.55" cy="2742.15" r="43.3" style=""/>
<circle cx="6003.55" cy="3135.75" r="43.3" style=""/>
<circle cx="6203.55" cy="3135.75" r="43.3" style=""/>
<circle cx="6403.55" cy="3135.75" r="43.3" style=""/>
<circle cx="6836.55" cy="3017.75" r="43.3" style=""/>
<circle cx="6639.75" cy="2742.15" r="43.3" style=""/>
<circle cx="6839.75" cy="2742.15" r="43.3" style=""/>
<circle cx="7039.75" cy="2742.15" r="43.3" style=""/>
<circle cx="7302.75" cy="3135.75" r="43.3" style=""/>
<circle cx="7505.95" cy="3556.35" r="43.3" style=""/>
<circle cx="7502.75" cy="3135.75" r="43.3" style=""/>
<circle cx="7702.75" cy="3135.75" r="43.3" style=""/>
<circle cx="7978.35" cy="2742.15" r="43.3" style=""/>
<circle cx="8178.35" cy="2742.15" r="43.3" style=""/>
<circle cx="8378.35" cy="2742.15" r="43.3" style=""/>
<circle cx="8175.15" cy="3017.75" r="43.3" style=""/>
</svg>
