M48
; DRILL file {KiCad 5.1.7-a382d34a8~88~ubuntu18.04.1} date Thu Jul 22 13:03:32 2021
; FORMAT={-:-/ absolute / inch / decimal}
; #@! TF.CreationDate,2021-07-22T13:03:32+01:00
; #@! TF.GenerationSoftware,Kicad,Pcbnew,5.1.7-a382d34a8~88~ubuntu18.04.1
; #@! TF.FileFunction,Plated,1,2,PTH
FMAT,2
INCH
T1C0.0157
T2C0.0315
T3C0.0394
T4C0.0433
T5C0.0866
%
G90
G05
T1
X2.8681Y-4.5079
X2.8871Y-4.4619
X2.8871Y-4.5538
X2.9331Y-4.4429
X2.9331Y-4.5728
X2.979Y-4.4619
X2.979Y-4.5538
X2.998Y-4.5079
X3.2552Y-2.1522
X3.2743Y-2.1063
X3.2743Y-2.1982
X3.3202Y-2.0873
X3.3202Y-2.2172
X3.3661Y-2.1063
X3.3661Y-2.1982
X3.3852Y-2.1522
X7.7106Y-4.5079
X7.7297Y-4.4619
X7.7297Y-4.5538
X7.7756Y-4.4429
X7.7756Y-4.5728
X7.8215Y-4.4619
X7.8215Y-4.5538
X7.8406Y-4.5079
X7.7303Y-1.7323
X7.7493Y-1.6863
X7.7493Y-1.7782
X7.7953Y-1.6673
X7.7953Y-1.7972
X7.8412Y-1.6863
X7.8412Y-1.7782
X7.8602Y-1.7323
T2
X4.8819Y-2.2165
X4.8819Y-2.7165
X5.8268Y-2.4528
X5.8268Y-2.9528
X7.126Y-2.4528
X7.126Y-2.9528
X7.4213Y-2.1969
X7.4213Y-2.6969
X7.7362Y-2.4528
X7.7362Y-2.9528
X5.1969Y-2.4528
X5.1969Y-2.9528
X3.3858Y-2.4409
X3.3858Y-2.9409
X3.9961Y-2.4528
X3.9961Y-2.9528
X6.811Y-2.1969
X6.811Y-2.6969
X4.311Y-2.2165
X4.311Y-2.7165
X3.7008Y-2.2362
X3.7008Y-2.7362
X4.6063Y-2.4528
X4.6063Y-2.9528
X6.4764Y-2.4528
X6.4764Y-2.9528
X3.0709Y-2.2244
X3.0709Y-2.7244
X6.1417Y-2.1969
X6.1417Y-2.6969
X5.4921Y-2.2165
X5.4921Y-2.7165
T3
X2.874Y-2.4409
X2.8937Y-4.0551
X2.9921Y-2.0768
X3.189Y-3.8189
X3.607Y-3.6047
X3.8331Y-3.8276
X4.5669Y-3.8583
X4.7726Y-4.0701
X5.4226Y-3.6144
X5.6633Y-3.7901
X6.3567Y-3.8484
X6.5853Y-4.0739
X3.0606Y-1.7732
X3.0606Y-1.8732
X3.1606Y-1.7732
X3.1606Y-1.8732
X3.2606Y-1.7732
X3.2606Y-1.8732
X3.3606Y-1.7732
X3.3606Y-1.8732
X3.4606Y-1.7732
X3.4606Y-1.8732
X3.5606Y-1.7732
X3.5606Y-1.8732
X3.6606Y-1.7732
X3.6606Y-1.8732
X3.7606Y-1.7732
X3.7606Y-1.8732
X3.8606Y-1.7732
X3.8606Y-1.8732
X3.1693Y-4.5669
X3.0587Y-4.1331
X3.0587Y-4.2331
X3.1587Y-4.1331
X3.1587Y-4.2331
X3.2587Y-4.1331
X3.2587Y-4.2331
X3.3587Y-4.1331
X3.3587Y-4.2331
X3.4587Y-4.1331
X3.4587Y-4.2331
X3.5587Y-4.1331
X3.5587Y-4.2331
X3.6587Y-4.1331
X3.6587Y-4.2331
X3.7587Y-4.1331
X3.7587Y-4.2331
X3.8587Y-4.1331
X3.8587Y-4.2331
X3.3071Y-4.5669
T4
X4.6063Y-3.3205
X4.6063Y-3.7205
X6.0433Y-2.9134
X6.1433Y-2.9134
X6.2433Y-2.9134
X7.126Y-3.3205
X7.126Y-3.7205
X7.6378Y-3.1102
X7.7378Y-3.1102
X7.8378Y-3.1102
X5.8268Y-3.3205
X5.8268Y-3.7205
X4.7835Y-2.9134
X4.8835Y-2.9134
X4.9835Y-2.9134
X3.3858Y-3.3205
X3.3858Y-3.7205
X3.6024Y-2.9134
X3.7024Y-2.9134
X3.8024Y-2.9134
X3.2843Y-3.1102
X3.3843Y-3.1102
X3.4843Y-3.1102
X6.7126Y-2.9134
X6.8126Y-2.9134
X6.9126Y-2.9134
X5.0953Y-3.1102
X5.1953Y-3.1102
X5.2953Y-3.1102
X5.4921Y-3.0512
X5.4921Y-3.4512
X4.5047Y-3.1102
X4.6047Y-3.1102
X4.7047Y-3.1102
X6.4764Y-3.3205
X6.4764Y-3.7205
X5.7252Y-3.1102
X5.8252Y-3.1102
X5.9252Y-3.1102
X5.3937Y-2.9134
X5.4937Y-2.9134
X5.5937Y-2.9134
X6.3748Y-3.1102
X6.4748Y-3.1102
X6.5748Y-3.1102
X4.0157Y-3.3268
X4.0157Y-3.7268
X4.2126Y-2.9134
X4.3126Y-2.9134
X4.4126Y-2.9134
X3.7008Y-3.0646
X3.7008Y-3.4646
X3.9173Y-3.1102
X4.0173Y-3.1102
X4.1173Y-3.1102
X2.9724Y-2.9134
X3.0724Y-2.9134
X3.1724Y-2.9134
X4.311Y-3.0512
X4.311Y-3.4512
X7.4213Y-3.0512
X7.4213Y-3.4512
X4.8819Y-3.0512
X4.8819Y-3.4512
X5.1969Y-3.3268
X5.1969Y-3.7268
X7.3228Y-2.9134
X7.4228Y-2.9134
X7.5228Y-2.9134
X3.0709Y-3.0646
X3.0709Y-3.4646
X6.1417Y-3.0512
X6.1417Y-3.4512
X6.811Y-3.0512
X6.811Y-3.4512
X7.026Y-3.1102
X7.126Y-3.1102
X7.226Y-3.1102
X7.7362Y-3.3268
X7.7362Y-3.7268
T5
X2.9331Y-4.5079
X3.3202Y-2.1522
X7.7756Y-4.5079
X7.7953Y-1.7323
T0
M30
