%TF.GenerationSoftware,KiCad,Pcbnew,5.1.7-a382d34a8~88~ubuntu18.04.1*%
%TF.CreationDate,2021-03-10T09:37:04+00:00*%
%TF.ProjectId,solenoid,736f6c65-6e6f-4696-942e-6b696361645f,rev?*%
%TF.SameCoordinates,Original*%
%TF.FileFunction,Copper,L1,Top*%
%TF.FilePolarity,Positive*%
%FSLAX46Y46*%
G04 Gerber Fmt 4.6, Leading zero omitted, Abs format (unit mm)*
G04 Created by KiCad (PCBNEW 5.1.7-a382d34a8~88~ubuntu18.04.1) date 2021-03-10 09:37:04*
%MOMM*%
%LPD*%
G01*
G04 APERTURE LIST*
%TA.AperFunction,ComponentPad*%
%ADD10O,1.600000X1.600000*%
%TD*%
%TA.AperFunction,ComponentPad*%
%ADD11C,1.600000*%
%TD*%
%TA.AperFunction,ComponentPad*%
%ADD12R,2.200000X2.200000*%
%TD*%
%TA.AperFunction,ComponentPad*%
%ADD13O,2.200000X2.200000*%
%TD*%
%TA.AperFunction,ComponentPad*%
%ADD14R,1.905000X2.000000*%
%TD*%
%TA.AperFunction,ComponentPad*%
%ADD15O,1.905000X2.000000*%
%TD*%
%TA.AperFunction,ComponentPad*%
%ADD16R,1.700000X1.700000*%
%TD*%
%TA.AperFunction,ComponentPad*%
%ADD17O,1.700000X1.700000*%
%TD*%
%TA.AperFunction,ComponentPad*%
%ADD18C,2.000000*%
%TD*%
%TA.AperFunction,ViaPad*%
%ADD19C,2.000000*%
%TD*%
%TA.AperFunction,Conductor*%
%ADD20C,1.000000*%
%TD*%
%TA.AperFunction,Conductor*%
%ADD21C,0.500000*%
%TD*%
G04 APERTURE END LIST*
D10*
%TO.P,R8,2*%
%TO.N,D8*%
X132000000Y-62300000D03*
D11*
%TO.P,R8,1*%
%TO.N,Net-(Q8-Pad1)*%
X132000000Y-75000000D03*
%TD*%
D12*
%TO.P,D3,1*%
%TO.N,+12V*%
X94000000Y-88000000D03*
D13*
%TO.P,D3,2*%
%TO.N,S3*%
X94000000Y-77840000D03*
%TD*%
%TO.P,D1,2*%
%TO.N,S1*%
X78000000Y-77840000D03*
D12*
%TO.P,D1,1*%
%TO.N,+12V*%
X78000000Y-88000000D03*
%TD*%
D14*
%TO.P,Q1,1*%
%TO.N,Net-(Q1-Pad1)*%
X75500000Y-74000000D03*
D15*
%TO.P,Q1,2*%
%TO.N,S1*%
X78040000Y-74000000D03*
%TO.P,Q1,3*%
%TO.N,Earth*%
X80580000Y-74000000D03*
%TD*%
D13*
%TO.P,D2,2*%
%TO.N,S2*%
X86000000Y-84340000D03*
D12*
%TO.P,D2,1*%
%TO.N,+12V*%
X86000000Y-94500000D03*
%TD*%
D15*
%TO.P,Q9,3*%
%TO.N,Earth*%
X142080000Y-74000000D03*
%TO.P,Q9,2*%
%TO.N,S9*%
X139540000Y-74000000D03*
D14*
%TO.P,Q9,1*%
%TO.N,Net-(Q9-Pad1)*%
X137000000Y-74000000D03*
%TD*%
D10*
%TO.P,R2,2*%
%TO.N,D2*%
X86000000Y-62000000D03*
D11*
%TO.P,R2,1*%
%TO.N,Net-(Q2-Pad1)*%
X86000000Y-74700000D03*
%TD*%
D13*
%TO.P,D4,2*%
%TO.N,S4*%
X102000000Y-84500000D03*
D12*
%TO.P,D4,1*%
%TO.N,+12V*%
X102000000Y-94660000D03*
%TD*%
%TO.P,D5,1*%
%TO.N,+12V*%
X109500000Y-87660000D03*
D13*
%TO.P,D5,2*%
%TO.N,S5*%
X109500000Y-77500000D03*
%TD*%
D12*
%TO.P,D6,1*%
%TO.N,+12V*%
X117000000Y-94500000D03*
D13*
%TO.P,D6,2*%
%TO.N,S6*%
X117000000Y-84340000D03*
%TD*%
%TO.P,D7,2*%
%TO.N,S7*%
X124000000Y-77500000D03*
D12*
%TO.P,D7,1*%
%TO.N,+12V*%
X124000000Y-87660000D03*
%TD*%
D13*
%TO.P,D8,2*%
%TO.N,S8*%
X132000000Y-84500000D03*
D12*
%TO.P,D8,1*%
%TO.N,+12V*%
X132000000Y-94660000D03*
%TD*%
%TO.P,D9,1*%
%TO.N,+12V*%
X139500000Y-87660000D03*
D13*
%TO.P,D9,2*%
%TO.N,S9*%
X139500000Y-77500000D03*
%TD*%
D12*
%TO.P,D10,1*%
%TO.N,+12V*%
X148000000Y-94500000D03*
D13*
%TO.P,D10,2*%
%TO.N,S10*%
X148000000Y-84340000D03*
%TD*%
%TO.P,D11,2*%
%TO.N,S11*%
X156000000Y-77500000D03*
D12*
%TO.P,D11,1*%
%TO.N,+12V*%
X156000000Y-87660000D03*
%TD*%
D13*
%TO.P,D12,2*%
%TO.N,S12*%
X164500000Y-84340000D03*
D12*
%TO.P,D12,1*%
%TO.N,+12V*%
X164500000Y-94500000D03*
%TD*%
%TO.P,D13,1*%
%TO.N,+12V*%
X173000000Y-87660000D03*
D13*
%TO.P,D13,2*%
%TO.N,S13*%
X173000000Y-77500000D03*
%TD*%
%TO.P,D14,2*%
%TO.N,S14*%
X181000000Y-84340000D03*
D12*
%TO.P,D14,1*%
%TO.N,+12V*%
X181000000Y-94500000D03*
%TD*%
%TO.P,D15,1*%
%TO.N,+12V*%
X188500000Y-87660000D03*
D13*
%TO.P,D15,2*%
%TO.N,S15*%
X188500000Y-77500000D03*
%TD*%
D12*
%TO.P,D16,1*%
%TO.N,+12V*%
X196500000Y-94660000D03*
D13*
%TO.P,D16,2*%
%TO.N,S16*%
X196500000Y-84500000D03*
%TD*%
D14*
%TO.P,Q2,1*%
%TO.N,Net-(Q2-Pad1)*%
X88500000Y-79000000D03*
D15*
%TO.P,Q2,2*%
%TO.N,S2*%
X85960000Y-79000000D03*
%TO.P,Q2,3*%
%TO.N,Earth*%
X83420000Y-79000000D03*
%TD*%
%TO.P,Q4,3*%
%TO.N,Earth*%
X99500000Y-79000000D03*
%TO.P,Q4,2*%
%TO.N,S4*%
X102040000Y-79000000D03*
D14*
%TO.P,Q4,1*%
%TO.N,Net-(Q4-Pad1)*%
X104580000Y-79000000D03*
%TD*%
D15*
%TO.P,Q5,3*%
%TO.N,Earth*%
X112080000Y-74000000D03*
%TO.P,Q5,2*%
%TO.N,S5*%
X109540000Y-74000000D03*
D14*
%TO.P,Q5,1*%
%TO.N,Net-(Q5-Pad1)*%
X107000000Y-74000000D03*
%TD*%
%TO.P,Q6,1*%
%TO.N,Net-(Q6-Pad1)*%
X119500000Y-79000000D03*
D15*
%TO.P,Q6,2*%
%TO.N,S6*%
X116960000Y-79000000D03*
%TO.P,Q6,3*%
%TO.N,Earth*%
X114420000Y-79000000D03*
%TD*%
D14*
%TO.P,Q7,1*%
%TO.N,Net-(Q7-Pad1)*%
X121500000Y-74000000D03*
D15*
%TO.P,Q7,2*%
%TO.N,S7*%
X124040000Y-74000000D03*
%TO.P,Q7,3*%
%TO.N,Earth*%
X126580000Y-74000000D03*
%TD*%
D14*
%TO.P,Q8,1*%
%TO.N,Net-(Q8-Pad1)*%
X134500000Y-79000000D03*
D15*
%TO.P,Q8,2*%
%TO.N,S8*%
X131960000Y-79000000D03*
%TO.P,Q8,3*%
%TO.N,Earth*%
X129420000Y-79000000D03*
%TD*%
%TO.P,Q10,3*%
%TO.N,Earth*%
X145420000Y-79000000D03*
%TO.P,Q10,2*%
%TO.N,S10*%
X147960000Y-79000000D03*
D14*
%TO.P,Q10,1*%
%TO.N,Net-(Q10-Pad1)*%
X150500000Y-79000000D03*
%TD*%
%TO.P,Q11,1*%
%TO.N,Net-(Q11-Pad1)*%
X153500000Y-74000000D03*
D15*
%TO.P,Q11,2*%
%TO.N,S11*%
X156040000Y-74000000D03*
%TO.P,Q11,3*%
%TO.N,Earth*%
X158580000Y-74000000D03*
%TD*%
D14*
%TO.P,Q12,1*%
%TO.N,Net-(Q12-Pad1)*%
X167000000Y-79000000D03*
D15*
%TO.P,Q12,2*%
%TO.N,S12*%
X164460000Y-79000000D03*
%TO.P,Q12,3*%
%TO.N,Earth*%
X161920000Y-79000000D03*
%TD*%
%TO.P,Q13,3*%
%TO.N,Earth*%
X175580000Y-74000000D03*
%TO.P,Q13,2*%
%TO.N,S13*%
X173040000Y-74000000D03*
D14*
%TO.P,Q13,1*%
%TO.N,Net-(Q13-Pad1)*%
X170500000Y-74000000D03*
%TD*%
D15*
%TO.P,Q14,3*%
%TO.N,Earth*%
X178460000Y-79000000D03*
%TO.P,Q14,2*%
%TO.N,S14*%
X181000000Y-79000000D03*
D14*
%TO.P,Q14,1*%
%TO.N,Net-(Q14-Pad1)*%
X183540000Y-79000000D03*
%TD*%
D15*
%TO.P,Q15,3*%
%TO.N,Earth*%
X191080000Y-74000000D03*
%TO.P,Q15,2*%
%TO.N,S15*%
X188540000Y-74000000D03*
D14*
%TO.P,Q15,1*%
%TO.N,Net-(Q15-Pad1)*%
X186000000Y-74000000D03*
%TD*%
%TO.P,Q16,1*%
%TO.N,Net-(Q16-Pad1)*%
X199080000Y-79000000D03*
D15*
%TO.P,Q16,2*%
%TO.N,S16*%
X196540000Y-79000000D03*
%TO.P,Q16,3*%
%TO.N,Earth*%
X194000000Y-79000000D03*
%TD*%
D11*
%TO.P,R1,1*%
%TO.N,Net-(Q1-Pad1)*%
X78000000Y-69200000D03*
D10*
%TO.P,R1,2*%
%TO.N,D1*%
X78000000Y-56500000D03*
%TD*%
D11*
%TO.P,R4,1*%
%TO.N,Net-(Q4-Pad1)*%
X101500000Y-75000000D03*
D10*
%TO.P,R4,2*%
%TO.N,D4*%
X101500000Y-62300000D03*
%TD*%
D11*
%TO.P,R5,1*%
%TO.N,Net-(Q5-Pad1)*%
X109500000Y-69000000D03*
D10*
%TO.P,R5,2*%
%TO.N,D5*%
X109500000Y-56300000D03*
%TD*%
D11*
%TO.P,R6,1*%
%TO.N,Net-(Q6-Pad1)*%
X117000000Y-75000000D03*
D10*
%TO.P,R6,2*%
%TO.N,D6*%
X117000000Y-62300000D03*
%TD*%
D11*
%TO.P,R7,1*%
%TO.N,Net-(Q7-Pad1)*%
X124000000Y-69000000D03*
D10*
%TO.P,R7,2*%
%TO.N,D7*%
X124000000Y-56300000D03*
%TD*%
D11*
%TO.P,R9,1*%
%TO.N,Net-(Q9-Pad1)*%
X139500000Y-69000000D03*
D10*
%TO.P,R9,2*%
%TO.N,D9*%
X139500000Y-56300000D03*
%TD*%
%TO.P,R10,2*%
%TO.N,D10*%
X148000000Y-62300000D03*
D11*
%TO.P,R10,1*%
%TO.N,Net-(Q10-Pad1)*%
X148000000Y-75000000D03*
%TD*%
D10*
%TO.P,R11,2*%
%TO.N,D11*%
X156000000Y-55800000D03*
D11*
%TO.P,R11,1*%
%TO.N,Net-(Q11-Pad1)*%
X156000000Y-68500000D03*
%TD*%
D10*
%TO.P,R12,2*%
%TO.N,D12*%
X164500000Y-62300000D03*
D11*
%TO.P,R12,1*%
%TO.N,Net-(Q12-Pad1)*%
X164500000Y-75000000D03*
%TD*%
%TO.P,R13,1*%
%TO.N,Net-(Q13-Pad1)*%
X173000000Y-68500000D03*
D10*
%TO.P,R13,2*%
%TO.N,D13*%
X173000000Y-55800000D03*
%TD*%
%TO.P,R14,2*%
%TO.N,D14*%
X181000000Y-62300000D03*
D11*
%TO.P,R14,1*%
%TO.N,Net-(Q14-Pad1)*%
X181000000Y-75000000D03*
%TD*%
D10*
%TO.P,R15,2*%
%TO.N,D15*%
X188500000Y-55800000D03*
D11*
%TO.P,R15,1*%
%TO.N,Net-(Q15-Pad1)*%
X188500000Y-68500000D03*
%TD*%
%TO.P,R16,1*%
%TO.N,Net-(Q16-Pad1)*%
X196500000Y-75000000D03*
D10*
%TO.P,R16,2*%
%TO.N,D16*%
X196500000Y-62300000D03*
%TD*%
D14*
%TO.P,Q3,1*%
%TO.N,Net-(Q3-Pad1)*%
X91500000Y-74000000D03*
D15*
%TO.P,Q3,2*%
%TO.N,S3*%
X94040000Y-74000000D03*
%TO.P,Q3,3*%
%TO.N,Earth*%
X96580000Y-74000000D03*
%TD*%
D11*
%TO.P,R3,1*%
%TO.N,Net-(Q3-Pad1)*%
X94000000Y-69500000D03*
D10*
%TO.P,R3,2*%
%TO.N,D3*%
X94000000Y-56800000D03*
%TD*%
D16*
%TO.P,J2,1*%
%TO.N,S9*%
X98010000Y-104980000D03*
D17*
%TO.P,J2,2*%
%TO.N,S10*%
X98010000Y-107520000D03*
%TO.P,J2,3*%
%TO.N,S8*%
X95470000Y-104980000D03*
%TO.P,J2,4*%
%TO.N,S11*%
X95470000Y-107520000D03*
%TO.P,J2,5*%
%TO.N,S7*%
X92930000Y-104980000D03*
%TO.P,J2,6*%
%TO.N,S12*%
X92930000Y-107520000D03*
%TO.P,J2,7*%
%TO.N,S6*%
X90390000Y-104980000D03*
%TO.P,J2,8*%
%TO.N,S13*%
X90390000Y-107520000D03*
%TO.P,J2,9*%
%TO.N,S5*%
X87850000Y-104980000D03*
%TO.P,J2,10*%
%TO.N,S14*%
X87850000Y-107520000D03*
%TO.P,J2,11*%
%TO.N,S4*%
X85310000Y-104980000D03*
%TO.P,J2,12*%
%TO.N,S15*%
X85310000Y-107520000D03*
%TO.P,J2,13*%
%TO.N,S3*%
X82770000Y-104980000D03*
%TO.P,J2,14*%
%TO.N,S16*%
X82770000Y-107520000D03*
%TO.P,J2,15*%
%TO.N,S2*%
X80230000Y-104980000D03*
%TO.P,J2,16*%
%TO.N,+12V*%
X80230000Y-107520000D03*
%TO.P,J2,17*%
%TO.N,S1*%
X77690000Y-104980000D03*
%TO.P,J2,18*%
%TO.N,Earth*%
X77690000Y-107520000D03*
%TD*%
D16*
%TO.P,J1,1*%
%TO.N,D1*%
X77740000Y-47580000D03*
D17*
%TO.P,J1,2*%
%TO.N,Earth*%
X77740000Y-45040000D03*
%TO.P,J1,3*%
%TO.N,D2*%
X80280000Y-47580000D03*
%TO.P,J1,4*%
%TO.N,Earth*%
X80280000Y-45040000D03*
%TO.P,J1,5*%
%TO.N,D3*%
X82820000Y-47580000D03*
%TO.P,J1,6*%
%TO.N,D16*%
X82820000Y-45040000D03*
%TO.P,J1,7*%
%TO.N,D4*%
X85360000Y-47580000D03*
%TO.P,J1,8*%
%TO.N,D15*%
X85360000Y-45040000D03*
%TO.P,J1,9*%
%TO.N,D5*%
X87900000Y-47580000D03*
%TO.P,J1,10*%
%TO.N,D14*%
X87900000Y-45040000D03*
%TO.P,J1,11*%
%TO.N,D6*%
X90440000Y-47580000D03*
%TO.P,J1,12*%
%TO.N,D13*%
X90440000Y-45040000D03*
%TO.P,J1,13*%
%TO.N,D7*%
X92980000Y-47580000D03*
%TO.P,J1,14*%
%TO.N,D12*%
X92980000Y-45040000D03*
%TO.P,J1,15*%
%TO.N,D8*%
X95520000Y-47580000D03*
%TO.P,J1,16*%
%TO.N,D11*%
X95520000Y-45040000D03*
%TO.P,J1,17*%
%TO.N,D9*%
X98060000Y-47580000D03*
%TO.P,J1,18*%
%TO.N,D10*%
X98060000Y-45040000D03*
%TD*%
D18*
%TO.P,J3,1*%
%TO.N,+12V*%
X80170000Y-114240000D03*
%TD*%
%TO.P,J4,1*%
%TO.N,Earth*%
X75130000Y-114290000D03*
%TD*%
D19*
%TO.N,+12V*%
X73639983Y-104055000D03*
X81000000Y-97000000D03*
X143849067Y-96269067D03*
X137735000Y-91804986D03*
X116000000Y-98000000D03*
X121223494Y-103379887D03*
X97360000Y-97220000D03*
X91618307Y-91558309D03*
X161460000Y-97750000D03*
X167267689Y-103477689D03*
%TO.N,Earth*%
X73000000Y-62000000D03*
X76000000Y-52750000D03*
%TD*%
D20*
%TO.N,+12V*%
X73639983Y-104055000D02*
X74055000Y-104055000D01*
X74055000Y-104055000D02*
X81000000Y-97110000D01*
X81000000Y-97110000D02*
X81000000Y-97000000D01*
X137735000Y-91804986D02*
X137914986Y-91804986D01*
X142379067Y-96269067D02*
X143849067Y-96269067D01*
X137914986Y-91804986D02*
X142379067Y-96269067D01*
X121223494Y-103223502D02*
X116000000Y-98000008D01*
X116000000Y-98000008D02*
X116000000Y-98000000D01*
X121223494Y-103379887D02*
X121223494Y-103223502D01*
X91698309Y-91558309D02*
X97360000Y-97220000D01*
X91618307Y-91558309D02*
X91698309Y-91558309D01*
X161460000Y-97750000D02*
X167187689Y-103477689D01*
X167187689Y-103477689D02*
X167267689Y-103477689D01*
%TO.N,Earth*%
X73000000Y-55750000D02*
X76000000Y-52750000D01*
X73000000Y-62000000D02*
X73000000Y-55750000D01*
D21*
%TO.N,D4*%
X101500000Y-62500000D02*
X101500000Y-62000000D01*
%TD*%
M02*
