<?xml version="1.0" standalone="no"?>
 <!DOCTYPE svg PUBLIC "-//W3C//DTD SVG 1.1//EN" 
 "http://www.w3.org/Graphics/SVG/1.1/DTD/svg11.dtd"> 
<svg
  xmlns:svg="http://www.w3.org/2000/svg"
  xmlns="http://www.w3.org/2000/svg"
  xmlns:xlink="http://www.w3.org/1999/xlink"
  version="1.1"
  width="29.700220cm" height="21.000720cm" viewBox="0 0 116930 82680">
<title>SVG Picture created as solenoid-F_SilkS.svg date 2021/04/27 10:43:24 </title>
  <desc>Picture generated by PCBNEW </desc>
<g style="fill:#000000; fill-opacity:1;stroke:#000000; stroke-opacity:1;
stroke-linecap:round; stroke-linejoin:round;"
 transform="translate(0 0) scale(1 1)">
</g>
<g style="fill:#000000; fill-opacity:0.0; 
stroke:#000000; stroke-width:-0.000393701; stroke-opacity:1; 
stroke-linecap:round; stroke-linejoin:round;">
</g>
<g style="fill:#000000; fill-opacity:0.0; 
stroke:#000000; stroke-width:47.2441; stroke-opacity:1; 
stroke-linecap:round; stroke-linejoin:round;">
<path d="M51968 24937
L51968 25208
" />
<path d="M51968 29118
L51968 28846
" />
<path d="M51291 25208
L51291 28846
" />
<path d="M52645 25208
L51291 25208
" />
<path d="M52645 28846
L52645 25208
" />
<path d="M51291 28846
L52645 28846
" />
<path d="M36429 33409
L37586 33409
" />
<path d="M36429 33314
L37586 33314
" />
<path d="M36429 33362
L37586 33362
" />
<path d="M37007 31173
L37007 31574
" />
<path d="M37007 34118
L37007 33716
" />
<path d="M36429 31574
L36429 33716
" />
<path d="M37586 31574
L36429 31574
" />
<path d="M37586 33716
L37586 31574
" />
<path d="M36429 33716
L37586 33716
" />
<path d="M30129 33409
L31287 33409
" />
<path d="M30129 33314
L31287 33314
" />
<path d="M30129 33362
L31287 33362
" />
<path d="M30708 31173
L30708 31574
" />
<path d="M30708 34118
L30708 33716
" />
<path d="M30129 31574
L30129 33716
" />
<path d="M31287 31574
L30129 31574
" />
<path d="M31287 33716
L31287 31574
" />
<path d="M30129 33716
L31287 33716
" />
<path d="M28708 27846
L32740 27846
" />
<path d="M28708 29673
L32740 29673
" />
<path d="M28708 27846
L28708 29673
" />
<path d="M32740 27846
L32740 29673
" />
<path d="M28708 28440
L32740 28440
" />
<path d="M29996 27846
L29996 28440
" />
<path d="M31453 27846
L31453 28440
" />
<path d="M33279 35968
L34437 35968
" />
<path d="M33279 35874
L34437 35874
" />
<path d="M33279 35921
L34437 35921
" />
<path d="M33858 33732
L33858 34133
" />
<path d="M33858 36677
L33858 36275
" />
<path d="M33279 34133
L33279 36275
" />
<path d="M34437 34133
L33279 34133
" />
<path d="M34437 36275
L34437 34133
" />
<path d="M33279 36275
L34437 36275
" />
<path d="M55665 27846
L55665 28440
" />
<path d="M54208 27846
L54208 28440
" />
<path d="M52921 28440
L56952 28440
" />
<path d="M56952 27846
L56952 29673
" />
<path d="M52921 27846
L52921 29673
" />
<path d="M52921 29673
L56952 29673
" />
<path d="M52921 27846
L56952 27846
" />
<path d="M33858 24818
L33858 25090
" />
<path d="M33858 29000
L33858 28728
" />
<path d="M33181 25090
L33181 28728
" />
<path d="M34535 25090
L33181 25090
" />
<path d="M34535 28728
L34535 25090
" />
<path d="M33181 28728
L34535 28728
" />
<path d="M39578 36031
L40736 36031
" />
<path d="M39578 35937
L40736 35937
" />
<path d="M39578 35984
L40736 35984
" />
<path d="M40157 33795
L40157 34196
" />
<path d="M40157 36740
L40157 36338
" />
<path d="M39578 34196
L39578 36338
" />
<path d="M40736 34196
L39578 34196
" />
<path d="M40736 36338
L40736 34196
" />
<path d="M39578 36338
L40736 36338
" />
<path d="M42531 33582
L43688 33582
" />
<path d="M43688 33582
L43688 31440
" />
<path d="M43688 31440
L42531 31440
" />
<path d="M42531 31440
L42531 33582
" />
<path d="M43110 33984
L43110 33582
" />
<path d="M43110 31039
L43110 31440
" />
<path d="M42531 33228
L43688 33228
" />
<path d="M42531 33181
L43688 33181
" />
<path d="M42531 33275
L43688 33275
" />
<path d="M45484 36275
L46641 36275
" />
<path d="M46641 36275
L46641 34133
" />
<path d="M46641 34133
L45484 34133
" />
<path d="M45484 34133
L45484 36275
" />
<path d="M46062 36677
L46062 36275
" />
<path d="M46062 33732
L46062 34133
" />
<path d="M45484 35921
L46641 35921
" />
<path d="M45484 35874
L46641 35874
" />
<path d="M45484 35968
L46641 35968
" />
<path d="M48240 33275
L49397 33275
" />
<path d="M48240 33181
L49397 33181
" />
<path d="M48240 33228
L49397 33228
" />
<path d="M48818 31039
L48818 31440
" />
<path d="M48818 33984
L48818 33582
" />
<path d="M48240 31440
L48240 33582
" />
<path d="M49397 31440
L48240 31440
" />
<path d="M49397 33582
L49397 31440
" />
<path d="M48240 33582
L49397 33582
" />
<path d="M51389 36031
L52547 36031
" />
<path d="M51389 35937
L52547 35937
" />
<path d="M51389 35984
L52547 35984
" />
<path d="M51968 33795
L51968 34196
" />
<path d="M51968 36740
L51968 36338
" />
<path d="M51389 34196
L51389 36338
" />
<path d="M52547 34196
L51389 34196
" />
<path d="M52547 36338
L52547 34196
" />
<path d="M51389 36338
L52547 36338
" />
<path d="M54342 33582
L55500 33582
" />
<path d="M55500 33582
L55500 31440
" />
<path d="M55500 31440
L54342 31440
" />
<path d="M54342 31440
L54342 33582
" />
<path d="M54921 33984
L54921 33582
" />
<path d="M54921 31039
L54921 31440
" />
<path d="M54342 33228
L55500 33228
" />
<path d="M54342 33181
L55500 33181
" />
<path d="M54342 33275
L55500 33275
" />
<path d="M57688 36275
L58846 36275
" />
<path d="M58846 36275
L58846 34133
" />
<path d="M58846 34133
L57688 34133
" />
<path d="M57688 34133
L57688 36275
" />
<path d="M58267 36677
L58267 36275
" />
<path d="M58267 33732
L58267 34133
" />
<path d="M57688 35921
L58846 35921
" />
<path d="M57688 35874
L58846 35874
" />
<path d="M57688 35968
L58846 35968
" />
<path d="M60838 33275
L61996 33275
" />
<path d="M60838 33181
L61996 33181
" />
<path d="M60838 33228
L61996 33228
" />
<path d="M61417 31039
L61417 31440
" />
<path d="M61417 33984
L61417 33582
" />
<path d="M60838 31440
L60838 33582
" />
<path d="M61996 31440
L60838 31440
" />
<path d="M61996 33582
L61996 31440
" />
<path d="M60838 33582
L61996 33582
" />
<path d="M64185 35968
L65342 35968
" />
<path d="M64185 35874
L65342 35874
" />
<path d="M64185 35921
L65342 35921
" />
<path d="M64763 33732
L64763 34133
" />
<path d="M64763 36677
L64763 36275
" />
<path d="M64185 34133
L64185 36275
" />
<path d="M65342 34133
L64185 34133
" />
<path d="M65342 36275
L65342 34133
" />
<path d="M64185 36275
L65342 36275
" />
<path d="M67531 33582
L68688 33582
" />
<path d="M68688 33582
L68688 31440
" />
<path d="M68688 31440
L67531 31440
" />
<path d="M67531 31440
L67531 33582
" />
<path d="M68110 33984
L68110 33582
" />
<path d="M68110 31039
L68110 31440
" />
<path d="M67531 33228
L68688 33228
" />
<path d="M67531 33181
L68688 33181
" />
<path d="M67531 33275
L68688 33275
" />
<path d="M70681 35968
L71838 35968
" />
<path d="M70681 35874
L71838 35874
" />
<path d="M70681 35921
L71838 35921
" />
<path d="M71259 33732
L71259 34133
" />
<path d="M71259 36677
L71259 36275
" />
<path d="M70681 34133
L70681 36275
" />
<path d="M71838 34133
L70681 34133
" />
<path d="M71838 36275
L71838 34133
" />
<path d="M70681 36275
L71838 36275
" />
<path d="M73633 33582
L74791 33582
" />
<path d="M74791 33582
L74791 31440
" />
<path d="M74791 31440
L73633 31440
" />
<path d="M73633 31440
L73633 33582
" />
<path d="M74212 33984
L74212 33582
" />
<path d="M74212 31039
L74212 31440
" />
<path d="M73633 33228
L74791 33228
" />
<path d="M73633 33181
L74791 33181
" />
<path d="M73633 33275
L74791 33275
" />
<path d="M76783 36338
L77940 36338
" />
<path d="M77940 36338
L77940 34196
" />
<path d="M77940 34196
L76783 34196
" />
<path d="M76783 34196
L76783 36338
" />
<path d="M77362 36740
L77362 36338
" />
<path d="M77362 33795
L77362 34196
" />
<path d="M76783 35984
L77940 35984
" />
<path d="M76783 35937
L77940 35937
" />
<path d="M76783 36031
L77940 36031
" />
<path d="M35858 32389
L31826 32389
" />
<path d="M35858 30562
L31826 30562
" />
<path d="M35858 32389
L35858 30562
" />
<path d="M31826 32389
L31826 30562
" />
<path d="M35858 31795
L31826 31795
" />
<path d="M34570 32389
L34570 31795
" />
<path d="M33113 32389
L33113 31795
" />
<path d="M39444 32389
L39444 31795
" />
<path d="M40901 32389
L40901 31795
" />
<path d="M42188 31795
L38157 31795
" />
<path d="M38157 32389
L38157 30562
" />
<path d="M42188 32389
L42188 30562
" />
<path d="M42188 30562
L38157 30562
" />
<path d="M42188 32389
L38157 32389
" />
<path d="M43854 27846
L43854 28440
" />
<path d="M42397 27846
L42397 28440
" />
<path d="M41110 28440
L45141 28440
" />
<path d="M45141 27846
L45141 29673
" />
<path d="M41110 27846
L41110 29673
" />
<path d="M41110 29673
L45141 29673
" />
<path d="M41110 27846
L45141 27846
" />
<path d="M48062 32389
L44031 32389
" />
<path d="M48062 30562
L44031 30562
" />
<path d="M48062 32389
L48062 30562
" />
<path d="M44031 32389
L44031 30562
" />
<path d="M48062 31795
L44031 31795
" />
<path d="M46775 32389
L46775 31795
" />
<path d="M45318 32389
L45318 31795
" />
<path d="M46818 27846
L50850 27846
" />
<path d="M46818 29673
L50850 29673
" />
<path d="M46818 27846
L46818 29673
" />
<path d="M50850 27846
L50850 29673
" />
<path d="M46818 28440
L50850 28440
" />
<path d="M48106 27846
L48106 28440
" />
<path d="M49563 27846
L49563 28440
" />
<path d="M53968 32389
L49937 32389
" />
<path d="M53968 30562
L49937 30562
" />
<path d="M53968 32389
L53968 30562
" />
<path d="M49937 32389
L49937 30562
" />
<path d="M53968 31795
L49937 31795
" />
<path d="M52681 32389
L52681 31795
" />
<path d="M51224 32389
L51224 31795
" />
<path d="M57523 32389
L57523 31795
" />
<path d="M58980 32389
L58980 31795
" />
<path d="M60267 31795
L56236 31795
" />
<path d="M56236 32389
L56236 30562
" />
<path d="M60267 32389
L60267 30562
" />
<path d="M60267 30562
L56236 30562
" />
<path d="M60267 32389
L56236 32389
" />
<path d="M59417 27846
L63448 27846
" />
<path d="M59417 29673
L63448 29673
" />
<path d="M59417 27846
L59417 29673
" />
<path d="M63448 27846
L63448 29673
" />
<path d="M59417 28440
L63448 28440
" />
<path d="M60704 27846
L60704 28440
" />
<path d="M62161 27846
L62161 28440
" />
<path d="M66763 32389
L62732 32389
" />
<path d="M66763 30562
L62732 30562
" />
<path d="M66763 32389
L66763 30562
" />
<path d="M62732 32389
L62732 30562
" />
<path d="M66763 31795
L62732 31795
" />
<path d="M65476 32389
L65476 31795
" />
<path d="M64019 32389
L64019 31795
" />
<path d="M68854 27846
L68854 28440
" />
<path d="M67397 27846
L67397 28440
" />
<path d="M66110 28440
L70141 28440
" />
<path d="M70141 27846
L70141 29673
" />
<path d="M66110 27846
L66110 29673
" />
<path d="M66110 29673
L70141 29673
" />
<path d="M66110 27846
L70141 27846
" />
<path d="M70531 32389
L70531 31795
" />
<path d="M71988 32389
L71988 31795
" />
<path d="M73275 31795
L69244 31795
" />
<path d="M69244 32389
L69244 30562
" />
<path d="M73275 32389
L73275 30562
" />
<path d="M73275 30562
L69244 30562
" />
<path d="M73275 32389
L69244 32389
" />
<path d="M74957 27846
L74957 28440
" />
<path d="M73500 27846
L73500 28440
" />
<path d="M72212 28440
L76244 28440
" />
<path d="M76244 27846
L76244 29673
" />
<path d="M72212 27846
L72212 29673
" />
<path d="M72212 29673
L76244 29673
" />
<path d="M72212 27846
L76244 27846
" />
<path d="M79393 32389
L75362 32389
" />
<path d="M79393 30562
L75362 30562
" />
<path d="M79393 32389
L79393 30562
" />
<path d="M75362 32389
L75362 30562
" />
<path d="M79393 31795
L75362 31795
" />
<path d="M78106 32389
L78106 31795
" />
<path d="M76649 32389
L76649 31795
" />
<path d="M30031 26562
L31385 26562
" />
<path d="M31385 26562
L31385 22925
" />
<path d="M31385 22925
L30031 22925
" />
<path d="M30031 22925
L30031 26562
" />
<path d="M30708 26834
L30708 26562
" />
<path d="M30708 22653
L30708 22925
" />
<path d="M39283 28846
L40637 28846
" />
<path d="M40637 28846
L40637 25208
" />
<path d="M40637 25208
L39283 25208
" />
<path d="M39283 25208
L39283 28846
" />
<path d="M39960 29118
L39960 28846
" />
<path d="M39960 24937
L39960 25208
" />
<path d="M42433 26484
L43787 26484
" />
<path d="M43787 26484
L43787 22846
" />
<path d="M43787 22846
L42433 22846
" />
<path d="M42433 22846
L42433 26484
" />
<path d="M43110 26755
L43110 26484
" />
<path d="M43110 22574
L43110 22846
" />
<path d="M45385 28846
L46740 28846
" />
<path d="M46740 28846
L46740 25208
" />
<path d="M46740 25208
L45385 25208
" />
<path d="M45385 25208
L45385 28846
" />
<path d="M46062 29118
L46062 28846
" />
<path d="M46062 24937
L46062 25208
" />
<path d="M48141 26484
L49496 26484
" />
<path d="M49496 26484
L49496 22846
" />
<path d="M49496 22846
L48141 22846
" />
<path d="M48141 22846
L48141 26484
" />
<path d="M48818 26755
L48818 26484
" />
<path d="M48818 22574
L48818 22846
" />
<path d="M54244 26484
L55598 26484
" />
<path d="M55598 26484
L55598 22846
" />
<path d="M55598 22846
L54244 22846
" />
<path d="M54244 22846
L54244 26484
" />
<path d="M54921 26755
L54921 26484
" />
<path d="M54921 22574
L54921 22846
" />
<path d="M58267 24937
L58267 25208
" />
<path d="M58267 29118
L58267 28846
" />
<path d="M57590 25208
L57590 28846
" />
<path d="M58944 25208
L57590 25208
" />
<path d="M58944 28846
L58944 25208
" />
<path d="M57590 28846
L58944 28846
" />
<path d="M61417 22377
L61417 22649
" />
<path d="M61417 26559
L61417 26287
" />
<path d="M60740 22649
L60740 26287
" />
<path d="M62094 22649
L60740 22649
" />
<path d="M62094 26287
L62094 22649
" />
<path d="M60740 26287
L62094 26287
" />
<path d="M64763 24937
L64763 25208
" />
<path d="M64763 29118
L64763 28846
" />
<path d="M64086 25208
L64086 28846
" />
<path d="M65440 25208
L64086 25208
" />
<path d="M65440 28846
L65440 25208
" />
<path d="M64086 28846
L65440 28846
" />
<path d="M67433 26287
L68787 26287
" />
<path d="M68787 26287
L68787 22649
" />
<path d="M68787 22649
L67433 22649
" />
<path d="M67433 22649
L67433 26287
" />
<path d="M68110 26559
L68110 26287
" />
<path d="M68110 22377
L68110 22649
" />
<path d="M71259 24937
L71259 25208
" />
<path d="M71259 29118
L71259 28846
" />
<path d="M70582 25208
L70582 28846
" />
<path d="M71937 25208
L70582 25208
" />
<path d="M71937 28846
L71937 25208
" />
<path d="M70582 28846
L71937 28846
" />
<path d="M74212 22377
L74212 22649
" />
<path d="M74212 26559
L74212 26287
" />
<path d="M73535 22649
L73535 26287
" />
<path d="M74889 22649
L73535 22649
" />
<path d="M74889 26287
L74889 22649
" />
<path d="M73535 26287
L74889 26287
" />
<path d="M76685 28846
L78039 28846
" />
<path d="M78039 28846
L78039 25208
" />
<path d="M78039 25208
L76685 25208
" />
<path d="M76685 25208
L76685 28846
" />
<path d="M77362 29118
L77362 28846
" />
<path d="M77362 24937
L77362 25208
" />
<path d="M37752 27846
L37752 28440
" />
<path d="M36295 27846
L36295 28440
" />
<path d="M35007 28440
L39039 28440
" />
<path d="M39039 27846
L39039 29673
" />
<path d="M35007 27846
L35007 29673
" />
<path d="M35007 29673
L39039 29673
" />
<path d="M35007 27846
L39039 27846
" />
<path d="M37007 22771
L37007 23043
" />
<path d="M37007 26952
L37007 26681
" />
<path d="M36330 23043
L36330 26681
" />
<path d="M37685 23043
L36330 23043
" />
<path d="M37685 26681
L37685 23043
" />
<path d="M36330 26681
L37685 26681
" />
<path d="M39110 40807
L39110 41330
" />
<path d="M38586 40807
L39110 40807
" />
<path d="M39110 41830
L39110 42854
" />
<path d="M38086 41830
L39110 41830
" />
<path d="M38086 40807
L38086 41830
" />
<path d="M39110 42854
L30062 42854
" />
<path d="M38086 40807
L30062 40807
" />
<path d="M30062 40807
L30062 42854
" />
<path d="M30082 19255
L30082 18732
" />
<path d="M30606 19255
L30082 19255
" />
<path d="M30082 18232
L30082 17208
" />
<path d="M31106 18232
L30082 18232
" />
<path d="M31106 19255
L31106 18232
" />
<path d="M30082 17208
L39129 17208
" />
<path d="M31106 19255
L39129 19255
" />
<path d="M39129 19255
L39129 17208
" />
<circle cx="31563" cy="44976.4" r="492.52" /> 
<circle cx="29578.7" cy="44996.1" r="492.52" /> 
</g>
<g style="fill:#000000; fill-opacity:0.0; 
stroke:#000000; stroke-width:59.0551; stroke-opacity:1; 
stroke-linecap:round; stroke-linejoin:round;">
<g transform="rotate(-90 50897.6 27027.6)">
<text x="50897.6" y="27224.4"
textLength="845.426" font-size="524.934" lengthAdjust="spacingAndGlyphs"
text-anchor="middle" opacity="0">R8</text>
</g>
<path d="M51075 27093
L50888 27224
" />
<path d="M51075 27318
L50682 27318
L50682 27168
L50700 27130
L50719 27111
L50757 27093
L50813 27093
L50850 27111
L50869 27130
L50888 27168
L50888 27318
" />
<path d="M50850 26868
L50832 26905
L50813 26924
L50775 26943
L50757 26943
L50719 26924
L50700 26905
L50682 26868
L50682 26793
L50700 26755
L50719 26736
L50757 26718
L50775 26718
L50813 26736
L50832 26755
L50850 26793
L50850 26868
L50869 26905
L50888 26924
L50925 26943
L51000 26943
L51038 26924
L51056 26905
L51075 26868
L51075 26793
L51056 26755
L51038 26736
L51000 26718
L50925 26718
L50888 26736
L50869 26755
L50850 26793
" />
<g transform="rotate(-90 36035.4 32645.7)">
<text x="36035.4" y="32842.5"
textLength="845.426" font-size="524.934" lengthAdjust="spacingAndGlyphs"
text-anchor="middle" opacity="0">D3</text>
</g>
<path d="M36213 32936
L35819 32936
L35819 32842
L35838 32786
L35876 32748
L35913 32730
L35988 32711
L36044 32711
L36119 32730
L36157 32748
L36194 32786
L36213 32842
L36213 32936
" />
<path d="M35819 32580
L35819 32336
L35969 32467
L35969 32411
L35988 32373
L36007 32355
L36044 32336
L36138 32336
L36176 32355
L36194 32373
L36213 32411
L36213 32523
L36194 32561
L36176 32580
" />
<g transform="rotate(-90 36181.1 34645.7)">
<text x="36181.1" y="34842.5"
textLength="470.472" font-size="524.934" lengthAdjust="spacingAndGlyphs"
text-anchor="middle" opacity="0">K</text>
</g>
<path d="M36359 34748
L35965 34748
" />
<path d="M36359 34523
L36134 34692
" />
<path d="M35965 34523
L36190 34748
" />
<g transform="rotate(-90 29736.2 32645.7)">
<text x="29736.2" y="32842.5"
textLength="845.426" font-size="524.934" lengthAdjust="spacingAndGlyphs"
text-anchor="middle" opacity="0">D1</text>
</g>
<path d="M29914 32936
L29520 32936
L29520 32842
L29539 32786
L29576 32748
L29614 32730
L29689 32711
L29745 32711
L29820 32730
L29858 32748
L29895 32786
L29914 32842
L29914 32936
" />
<path d="M29914 32336
L29914 32561
" />
<path d="M29914 32448
L29520 32448
L29576 32486
L29614 32523
L29633 32561
" />
<g transform="rotate(-90 29881.9 34645.7)">
<text x="29881.9" y="34842.5"
textLength="470.472" font-size="524.934" lengthAdjust="spacingAndGlyphs"
text-anchor="middle" opacity="0">K</text>
</g>
<path d="M30059 34748
L29666 34748
" />
<path d="M30059 34523
L29835 34692
" />
<path d="M29666 34523
L29891 34748
" />
<text x="30724.4" y="27649.6"
textLength="864.173" font-size="524.934" lengthAdjust="spacingAndGlyphs"
text-anchor="middle" opacity="0">Q1</text>
<path d="M30686 27668
L30649 27649
L30611 27612
L30555 27555
L30518 27537
L30480 27537
" />
<path d="M30499 27630
L30461 27612
L30424 27574
L30405 27499
L30405 27368
L30424 27293
L30461 27255
L30499 27237
L30574 27237
L30611 27255
L30649 27293
L30668 27368
L30668 27499
L30649 27574
L30611 27612
L30574 27630
L30499 27630
" />
<path d="M31043 27630
L30818 27630
" />
<path d="M30930 27630
L30930 27237
L30893 27293
L30855 27330
L30818 27349
" />
<g transform="rotate(-90 32885.8 35204.7)">
<text x="32885.8" y="35401.6"
textLength="845.426" font-size="524.934" lengthAdjust="spacingAndGlyphs"
text-anchor="middle" opacity="0">D2</text>
</g>
<path d="M33063 35495
L32670 35495
L32670 35401
L32688 35345
L32726 35307
L32763 35289
L32838 35270
L32895 35270
L32970 35289
L33007 35307
L33045 35345
L33063 35401
L33063 35495
" />
<path d="M32707 35120
L32688 35101
L32670 35064
L32670 34970
L32688 34932
L32707 34914
L32745 34895
L32782 34895
L32838 34914
L33063 35139
L33063 34895
" />
<g transform="rotate(-90 33031.5 37204.7)">
<text x="33031.5" y="37401.6"
textLength="470.472" font-size="524.934" lengthAdjust="spacingAndGlyphs"
text-anchor="middle" opacity="0">K</text>
</g>
<path d="M33209 37307
L32815 37307
" />
<path d="M33209 37082
L32984 37251
" />
<path d="M32815 37082
L33040 37307
" />
<text x="54937" y="27649.6"
textLength="864.173" font-size="524.934" lengthAdjust="spacingAndGlyphs"
text-anchor="middle" opacity="0">Q9</text>
<path d="M54899 27668
L54862 27649
L54824 27612
L54768 27555
L54730 27537
L54693 27537
" />
<path d="M54712 27630
L54674 27612
L54637 27574
L54618 27499
L54618 27368
L54637 27293
L54674 27255
L54712 27237
L54787 27237
L54824 27255
L54862 27293
L54880 27368
L54880 27499
L54862 27574
L54824 27612
L54787 27630
L54712 27630
" />
<path d="M55068 27630
L55143 27630
L55180 27612
L55199 27593
L55236 27537
L55255 27462
L55255 27312
L55236 27274
L55218 27255
L55180 27237
L55105 27237
L55068 27255
L55049 27274
L55030 27312
L55030 27405
L55049 27443
L55068 27462
L55105 27480
L55180 27480
L55218 27462
L55236 27443
L55255 27405
" />
<g transform="rotate(-90 32787.4 26909.4)">
<text x="32787.4" y="27106.3"
textLength="845.426" font-size="524.934" lengthAdjust="spacingAndGlyphs"
text-anchor="middle" opacity="0">R2</text>
</g>
<path d="M32965 26975
L32778 27106
" />
<path d="M32965 27200
L32571 27200
L32571 27050
L32590 27012
L32609 26993
L32646 26975
L32703 26975
L32740 26993
L32759 27012
L32778 27050
L32778 27200
" />
<path d="M32609 26825
L32590 26806
L32571 26768
L32571 26675
L32590 26637
L32609 26618
L32646 26600
L32684 26600
L32740 26618
L32965 26843
L32965 26600
" />
<g transform="rotate(-90 39185 35267.7)">
<text x="39185" y="35464.6"
textLength="845.426" font-size="524.934" lengthAdjust="spacingAndGlyphs"
text-anchor="middle" opacity="0">D4</text>
</g>
<path d="M39363 35558
L38969 35558
L38969 35464
L38988 35408
L39025 35370
L39063 35352
L39138 35333
L39194 35333
L39269 35352
L39306 35370
L39344 35408
L39363 35464
L39363 35558
" />
<path d="M39100 34995
L39363 34995
" />
<path d="M38950 35089
L39231 35183
L39231 34939
" />
<g transform="rotate(-90 39330.7 37267.7)">
<text x="39330.7" y="37464.6"
textLength="470.472" font-size="524.934" lengthAdjust="spacingAndGlyphs"
text-anchor="middle" opacity="0">K</text>
</g>
<path d="M39508 37370
L39115 37370
" />
<path d="M39508 37145
L39283 37314
" />
<path d="M39115 37145
L39340 37370
" />
<g transform="rotate(-90 42137.8 32511.8)">
<text x="42137.8" y="32708.7"
textLength="845.426" font-size="524.934" lengthAdjust="spacingAndGlyphs"
text-anchor="middle" opacity="0">D5</text>
</g>
<path d="M42315 32802
L41922 32802
L41922 32708
L41940 32652
L41978 32614
L42015 32596
L42090 32577
L42147 32577
L42222 32596
L42259 32614
L42297 32652
L42315 32708
L42315 32802
" />
<path d="M41922 32221
L41922 32408
L42109 32427
L42090 32408
L42072 32371
L42072 32277
L42090 32239
L42109 32221
L42147 32202
L42240 32202
L42278 32221
L42297 32239
L42315 32277
L42315 32371
L42297 32408
L42278 32427
" />
<g transform="rotate(-90 42283.5 34511.8)">
<text x="42283.5" y="34708.7"
textLength="470.472" font-size="524.934" lengthAdjust="spacingAndGlyphs"
text-anchor="middle" opacity="0">K</text>
</g>
<path d="M42461 34614
L42067 34614
" />
<path d="M42461 34389
L42236 34558
" />
<path d="M42067 34389
L42292 34614
" />
<g transform="rotate(-90 45090.6 35204.7)">
<text x="45090.6" y="35401.6"
textLength="845.426" font-size="524.934" lengthAdjust="spacingAndGlyphs"
text-anchor="middle" opacity="0">D6</text>
</g>
<path d="M45268 35495
L44874 35495
L44874 35401
L44893 35345
L44931 35307
L44968 35289
L45043 35270
L45099 35270
L45174 35289
L45212 35307
L45249 35345
L45268 35401
L45268 35495
" />
<path d="M44874 34932
L44874 35007
L44893 35045
L44912 35064
L44968 35101
L45043 35120
L45193 35120
L45231 35101
L45249 35082
L45268 35045
L45268 34970
L45249 34932
L45231 34914
L45193 34895
L45099 34895
L45062 34914
L45043 34932
L45024 34970
L45024 35045
L45043 35082
L45062 35101
L45099 35120
" />
<g transform="rotate(-90 45236.2 37204.7)">
<text x="45236.2" y="37401.6"
textLength="470.472" font-size="524.934" lengthAdjust="spacingAndGlyphs"
text-anchor="middle" opacity="0">K</text>
</g>
<path d="M45414 37307
L45020 37307
" />
<path d="M45414 37082
L45189 37251
" />
<path d="M45020 37082
L45245 37307
" />
<g transform="rotate(-90 47846.5 32511.8)">
<text x="47846.5" y="32708.7"
textLength="845.426" font-size="524.934" lengthAdjust="spacingAndGlyphs"
text-anchor="middle" opacity="0">D7</text>
</g>
<path d="M48024 32802
L47630 32802
L47630 32708
L47649 32652
L47687 32614
L47724 32596
L47799 32577
L47855 32577
L47930 32596
L47968 32614
L48005 32652
L48024 32708
L48024 32802
" />
<path d="M47630 32446
L47630 32183
L48024 32352
" />
<g transform="rotate(-90 47992.1 34511.8)">
<text x="47992.1" y="34708.7"
textLength="470.472" font-size="524.934" lengthAdjust="spacingAndGlyphs"
text-anchor="middle" opacity="0">K</text>
</g>
<path d="M48170 34614
L47776 34614
" />
<path d="M48170 34389
L47945 34558
" />
<path d="M47776 34389
L48001 34614
" />
<g transform="rotate(-90 50996.1 35267.7)">
<text x="50996.1" y="35464.6"
textLength="845.426" font-size="524.934" lengthAdjust="spacingAndGlyphs"
text-anchor="middle" opacity="0">D8</text>
</g>
<path d="M51174 35558
L50780 35558
L50780 35464
L50799 35408
L50836 35370
L50874 35352
L50949 35333
L51005 35333
L51080 35352
L51117 35370
L51155 35408
L51174 35464
L51174 35558
" />
<path d="M50949 35108
L50930 35145
L50911 35164
L50874 35183
L50855 35183
L50817 35164
L50799 35145
L50780 35108
L50780 35033
L50799 34995
L50817 34977
L50855 34958
L50874 34958
L50911 34977
L50930 34995
L50949 35033
L50949 35108
L50967 35145
L50986 35164
L51024 35183
L51099 35183
L51136 35164
L51155 35145
L51174 35108
L51174 35033
L51155 34995
L51136 34977
L51099 34958
L51024 34958
L50986 34977
L50967 34995
L50949 35033
" />
<g transform="rotate(-90 51141.7 37267.7)">
<text x="51141.7" y="37464.6"
textLength="470.472" font-size="524.934" lengthAdjust="spacingAndGlyphs"
text-anchor="middle" opacity="0">K</text>
</g>
<path d="M51319 37370
L50926 37370
" />
<path d="M51319 37145
L51094 37314
" />
<path d="M50926 37145
L51151 37370
" />
<g transform="rotate(-90 53948.8 32511.8)">
<text x="53948.8" y="32708.7"
textLength="845.426" font-size="524.934" lengthAdjust="spacingAndGlyphs"
text-anchor="middle" opacity="0">D9</text>
</g>
<path d="M54126 32802
L53733 32802
L53733 32708
L53751 32652
L53789 32614
L53826 32596
L53901 32577
L53958 32577
L54033 32596
L54070 32614
L54108 32652
L54126 32708
L54126 32802
" />
<path d="M54126 32389
L54126 32314
L54108 32277
L54089 32258
L54033 32221
L53958 32202
L53808 32202
L53770 32221
L53751 32239
L53733 32277
L53733 32352
L53751 32389
L53770 32408
L53808 32427
L53901 32427
L53939 32408
L53958 32389
L53976 32352
L53976 32277
L53958 32239
L53939 32221
L53901 32202
" />
<g transform="rotate(-90 54094.5 34511.8)">
<text x="54094.5" y="34708.7"
textLength="470.472" font-size="524.934" lengthAdjust="spacingAndGlyphs"
text-anchor="middle" opacity="0">K</text>
</g>
<path d="M54272 34614
L53878 34614
" />
<path d="M54272 34389
L54047 34558
" />
<path d="M53878 34389
L54103 34614
" />
<g transform="rotate(-90 57295.3 35204.7)">
<text x="57295.3" y="35401.6"
textLength="1220.38" font-size="524.934" lengthAdjust="spacingAndGlyphs"
text-anchor="middle" opacity="0">D10</text>
</g>
<path d="M57473 35682
L57079 35682
L57079 35589
L57098 35532
L57135 35495
L57173 35476
L57248 35457
L57304 35457
L57379 35476
L57417 35495
L57454 35532
L57473 35589
L57473 35682
" />
<path d="M57473 35082
L57473 35307
" />
<path d="M57473 35195
L57079 35195
L57135 35232
L57173 35270
L57192 35307
" />
<path d="M57079 34839
L57079 34801
L57098 34764
L57117 34745
L57154 34726
L57229 34707
L57323 34707
L57398 34726
L57435 34745
L57454 34764
L57473 34801
L57473 34839
L57454 34876
L57435 34895
L57398 34914
L57323 34932
L57229 34932
L57154 34914
L57117 34895
L57098 34876
L57079 34839
" />
<g transform="rotate(-90 57440.9 37204.7)">
<text x="57440.9" y="37401.6"
textLength="470.472" font-size="524.934" lengthAdjust="spacingAndGlyphs"
text-anchor="middle" opacity="0">K</text>
</g>
<path d="M57619 37307
L57225 37307
" />
<path d="M57619 37082
L57394 37251
" />
<path d="M57225 37082
L57450 37307
" />
<g transform="rotate(-90 60444.9 32511.8)">
<text x="60444.9" y="32708.7"
textLength="1220.38" font-size="524.934" lengthAdjust="spacingAndGlyphs"
text-anchor="middle" opacity="0">D11</text>
</g>
<path d="M60622 32989
L60229 32989
L60229 32896
L60248 32839
L60285 32802
L60323 32783
L60398 32764
L60454 32764
L60529 32783
L60566 32802
L60604 32839
L60622 32896
L60622 32989
" />
<path d="M60622 32389
L60622 32614
" />
<path d="M60622 32502
L60229 32502
L60285 32539
L60323 32577
L60341 32614
" />
<path d="M60622 32014
L60622 32239
" />
<path d="M60622 32127
L60229 32127
L60285 32164
L60323 32202
L60341 32239
" />
<g transform="rotate(-90 60590.6 34511.8)">
<text x="60590.6" y="34708.7"
textLength="470.472" font-size="524.934" lengthAdjust="spacingAndGlyphs"
text-anchor="middle" opacity="0">K</text>
</g>
<path d="M60768 34614
L60374 34614
" />
<path d="M60768 34389
L60543 34558
" />
<path d="M60374 34389
L60599 34614
" />
<g transform="rotate(-90 63791.3 35204.7)">
<text x="63791.3" y="35401.6"
textLength="1220.38" font-size="524.934" lengthAdjust="spacingAndGlyphs"
text-anchor="middle" opacity="0">D12</text>
</g>
<path d="M63969 35682
L63575 35682
L63575 35589
L63594 35532
L63631 35495
L63669 35476
L63744 35457
L63800 35457
L63875 35476
L63913 35495
L63950 35532
L63969 35589
L63969 35682
" />
<path d="M63969 35082
L63969 35307
" />
<path d="M63969 35195
L63575 35195
L63631 35232
L63669 35270
L63688 35307
" />
<path d="M63613 34932
L63594 34914
L63575 34876
L63575 34782
L63594 34745
L63613 34726
L63650 34707
L63688 34707
L63744 34726
L63969 34951
L63969 34707
" />
<g transform="rotate(-90 63937 37204.7)">
<text x="63937" y="37401.6"
textLength="470.472" font-size="524.934" lengthAdjust="spacingAndGlyphs"
text-anchor="middle" opacity="0">K</text>
</g>
<path d="M64115 37307
L63721 37307
" />
<path d="M64115 37082
L63890 37251
" />
<path d="M63721 37082
L63946 37307
" />
<g transform="rotate(-90 67137.8 32511.8)">
<text x="67137.8" y="32708.7"
textLength="1220.38" font-size="524.934" lengthAdjust="spacingAndGlyphs"
text-anchor="middle" opacity="0">D13</text>
</g>
<path d="M67315 32989
L66922 32989
L66922 32896
L66940 32839
L66978 32802
L67015 32783
L67090 32764
L67147 32764
L67222 32783
L67259 32802
L67297 32839
L67315 32896
L67315 32989
" />
<path d="M67315 32389
L67315 32614
" />
<path d="M67315 32502
L66922 32502
L66978 32539
L67015 32577
L67034 32614
" />
<path d="M66922 32258
L66922 32014
L67072 32146
L67072 32089
L67090 32052
L67109 32033
L67147 32014
L67240 32014
L67278 32033
L67297 32052
L67315 32089
L67315 32202
L67297 32239
L67278 32258
" />
<g transform="rotate(-90 67283.5 34511.8)">
<text x="67283.5" y="34708.7"
textLength="470.472" font-size="524.934" lengthAdjust="spacingAndGlyphs"
text-anchor="middle" opacity="0">K</text>
</g>
<path d="M67461 34614
L67067 34614
" />
<path d="M67461 34389
L67236 34558
" />
<path d="M67067 34389
L67292 34614
" />
<g transform="rotate(-90 70287.4 35204.7)">
<text x="70287.4" y="35401.6"
textLength="1220.38" font-size="524.934" lengthAdjust="spacingAndGlyphs"
text-anchor="middle" opacity="0">D14</text>
</g>
<path d="M70465 35682
L70071 35682
L70071 35589
L70090 35532
L70128 35495
L70165 35476
L70240 35457
L70296 35457
L70371 35476
L70409 35495
L70446 35532
L70465 35589
L70465 35682
" />
<path d="M70465 35082
L70465 35307
" />
<path d="M70465 35195
L70071 35195
L70128 35232
L70165 35270
L70184 35307
" />
<path d="M70203 34745
L70465 34745
" />
<path d="M70053 34839
L70334 34932
L70334 34689
" />
<g transform="rotate(-90 70433.1 37204.7)">
<text x="70433.1" y="37401.6"
textLength="470.472" font-size="524.934" lengthAdjust="spacingAndGlyphs"
text-anchor="middle" opacity="0">K</text>
</g>
<path d="M70611 37307
L70217 37307
" />
<path d="M70611 37082
L70386 37251
" />
<path d="M70217 37082
L70442 37307
" />
<g transform="rotate(-90 73240.2 32511.8)">
<text x="73240.2" y="32708.7"
textLength="1220.38" font-size="524.934" lengthAdjust="spacingAndGlyphs"
text-anchor="middle" opacity="0">D15</text>
</g>
<path d="M73418 32989
L73024 32989
L73024 32896
L73043 32839
L73080 32802
L73118 32783
L73193 32764
L73249 32764
L73324 32783
L73362 32802
L73399 32839
L73418 32896
L73418 32989
" />
<path d="M73418 32389
L73418 32614
" />
<path d="M73418 32502
L73024 32502
L73080 32539
L73118 32577
L73137 32614
" />
<path d="M73024 32033
L73024 32221
L73212 32239
L73193 32221
L73174 32183
L73174 32089
L73193 32052
L73212 32033
L73249 32014
L73343 32014
L73380 32033
L73399 32052
L73418 32089
L73418 32183
L73399 32221
L73380 32239
" />
<g transform="rotate(-90 73385.8 34511.8)">
<text x="73385.8" y="34708.7"
textLength="470.472" font-size="524.934" lengthAdjust="spacingAndGlyphs"
text-anchor="middle" opacity="0">K</text>
</g>
<path d="M73563 34614
L73170 34614
" />
<path d="M73563 34389
L73338 34558
" />
<path d="M73170 34389
L73395 34614
" />
<g transform="rotate(-90 76389.8 35267.7)">
<text x="76389.8" y="35464.6"
textLength="1220.38" font-size="524.934" lengthAdjust="spacingAndGlyphs"
text-anchor="middle" opacity="0">D16</text>
</g>
<path d="M76567 35745
L76174 35745
L76174 35652
L76192 35595
L76230 35558
L76267 35539
L76342 35520
L76399 35520
L76474 35539
L76511 35558
L76549 35595
L76567 35652
L76567 35745
" />
<path d="M76567 35145
L76567 35370
" />
<path d="M76567 35258
L76174 35258
L76230 35295
L76267 35333
L76286 35370
" />
<path d="M76174 34808
L76174 34883
L76192 34920
L76211 34939
L76267 34977
L76342 34995
L76492 34995
L76530 34977
L76549 34958
L76567 34920
L76567 34845
L76549 34808
L76530 34789
L76492 34770
L76399 34770
L76361 34789
L76342 34808
L76324 34845
L76324 34920
L76342 34958
L76361 34977
L76399 34995
" />
<g transform="rotate(-90 76535.4 37267.7)">
<text x="76535.4" y="37464.6"
textLength="470.472" font-size="524.934" lengthAdjust="spacingAndGlyphs"
text-anchor="middle" opacity="0">K</text>
</g>
<path d="M76713 37370
L76319 37370
" />
<path d="M76713 37145
L76488 37314
" />
<path d="M76319 37145
L76544 37370
" />
<text x="33842.5" y="32980.3"
textLength="864.173" font-size="524.934" lengthAdjust="spacingAndGlyphs"
text-anchor="middle" opacity="0">Q2</text>
<path d="M33805 32999
L33767 32980
L33730 32942
L33673 32886
L33636 32867
L33598 32867
" />
<path d="M33617 32961
L33580 32942
L33542 32905
L33523 32830
L33523 32699
L33542 32624
L33580 32586
L33617 32567
L33692 32567
L33730 32586
L33767 32624
L33786 32699
L33786 32830
L33767 32905
L33730 32942
L33692 32961
L33617 32961
" />
<path d="M33936 32605
L33955 32586
L33992 32567
L34086 32567
L34123 32586
L34142 32605
L34161 32642
L34161 32680
L34142 32736
L33917 32961
L34161 32961
" />
<text x="40173.2" y="32980.3"
textLength="864.173" font-size="524.934" lengthAdjust="spacingAndGlyphs"
text-anchor="middle" opacity="0">Q4</text>
<path d="M40135 32999
L40098 32980
L40060 32942
L40004 32886
L39967 32867
L39929 32867
" />
<path d="M39948 32961
L39910 32942
L39873 32905
L39854 32830
L39854 32699
L39873 32624
L39910 32586
L39948 32567
L40023 32567
L40060 32586
L40098 32624
L40116 32699
L40116 32830
L40098 32905
L40060 32942
L40023 32961
L39948 32961
" />
<path d="M40454 32699
L40454 32961
" />
<path d="M40360 32549
L40266 32830
L40510 32830
" />
<text x="43126" y="27649.6"
textLength="864.173" font-size="524.934" lengthAdjust="spacingAndGlyphs"
text-anchor="middle" opacity="0">Q5</text>
<path d="M43088 27668
L43050 27649
L43013 27612
L42957 27555
L42919 27537
L42882 27537
" />
<path d="M42901 27630
L42863 27612
L42826 27574
L42807 27499
L42807 27368
L42826 27293
L42863 27255
L42901 27237
L42976 27237
L43013 27255
L43050 27293
L43069 27368
L43069 27499
L43050 27574
L43013 27612
L42976 27630
L42901 27630
" />
<path d="M43425 27237
L43238 27237
L43219 27424
L43238 27405
L43275 27387
L43369 27387
L43407 27405
L43425 27424
L43444 27462
L43444 27555
L43425 27593
L43407 27612
L43369 27630
L43275 27630
L43238 27612
L43219 27593
" />
<text x="46047.2" y="32980.3"
textLength="864.173" font-size="524.934" lengthAdjust="spacingAndGlyphs"
text-anchor="middle" opacity="0">Q6</text>
<path d="M46009 32999
L45972 32980
L45934 32942
L45878 32886
L45841 32867
L45803 32867
" />
<path d="M45822 32961
L45784 32942
L45747 32905
L45728 32830
L45728 32699
L45747 32624
L45784 32586
L45822 32567
L45897 32567
L45934 32586
L45972 32624
L45991 32699
L45991 32830
L45972 32905
L45934 32942
L45897 32961
L45822 32961
" />
<path d="M46328 32567
L46253 32567
L46215 32586
L46197 32605
L46159 32661
L46140 32736
L46140 32886
L46159 32924
L46178 32942
L46215 32961
L46290 32961
L46328 32942
L46347 32924
L46365 32886
L46365 32792
L46347 32755
L46328 32736
L46290 32717
L46215 32717
L46178 32736
L46159 32755
L46140 32792
" />
<text x="48834.6" y="27649.6"
textLength="864.173" font-size="524.934" lengthAdjust="spacingAndGlyphs"
text-anchor="middle" opacity="0">Q7</text>
<path d="M48797 27668
L48759 27649
L48722 27612
L48665 27555
L48628 27537
L48590 27537
" />
<path d="M48609 27630
L48572 27612
L48534 27574
L48515 27499
L48515 27368
L48534 27293
L48572 27255
L48609 27237
L48684 27237
L48722 27255
L48759 27293
L48778 27368
L48778 27499
L48759 27574
L48722 27612
L48684 27630
L48609 27630
" />
<path d="M48909 27237
L49172 27237
L49003 27630
" />
<text x="51952.8" y="32980.3"
textLength="864.173" font-size="524.934" lengthAdjust="spacingAndGlyphs"
text-anchor="middle" opacity="0">Q8</text>
<path d="M51915 32999
L51877 32980
L51840 32942
L51784 32886
L51746 32867
L51709 32867
" />
<path d="M51727 32961
L51690 32942
L51652 32905
L51634 32830
L51634 32699
L51652 32624
L51690 32586
L51727 32567
L51802 32567
L51840 32586
L51877 32624
L51896 32699
L51896 32830
L51877 32905
L51840 32942
L51802 32961
L51727 32961
" />
<path d="M52121 32736
L52083 32717
L52065 32699
L52046 32661
L52046 32642
L52065 32605
L52083 32586
L52121 32567
L52196 32567
L52233 32586
L52252 32605
L52271 32642
L52271 32661
L52252 32699
L52233 32717
L52196 32736
L52121 32736
L52083 32755
L52065 32774
L52046 32811
L52046 32886
L52065 32924
L52083 32942
L52121 32961
L52196 32961
L52233 32942
L52252 32924
L52271 32886
L52271 32811
L52252 32774
L52233 32755
L52196 32736
" />
<text x="58252" y="32980.3"
textLength="1239.13" font-size="524.934" lengthAdjust="spacingAndGlyphs"
text-anchor="middle" opacity="0">Q10</text>
<path d="M58026 32999
L57989 32980
L57952 32942
L57895 32886
L57858 32867
L57820 32867
" />
<path d="M57839 32961
L57802 32942
L57764 32905
L57745 32830
L57745 32699
L57764 32624
L57802 32586
L57839 32567
L57914 32567
L57952 32586
L57989 32624
L58008 32699
L58008 32830
L57989 32905
L57952 32942
L57914 32961
L57839 32961
" />
<path d="M58383 32961
L58158 32961
" />
<path d="M58270 32961
L58270 32567
L58233 32624
L58195 32661
L58158 32680
" />
<path d="M58626 32567
L58664 32567
L58701 32586
L58720 32605
L58739 32642
L58758 32717
L58758 32811
L58739 32886
L58720 32924
L58701 32942
L58664 32961
L58626 32961
L58589 32942
L58570 32924
L58551 32886
L58533 32811
L58533 32717
L58551 32642
L58570 32605
L58589 32586
L58626 32567
" />
<text x="61433.1" y="27649.6"
textLength="1239.13" font-size="524.934" lengthAdjust="spacingAndGlyphs"
text-anchor="middle" opacity="0">Q11</text>
<path d="M61208 27668
L61170 27649
L61133 27612
L61076 27555
L61039 27537
L61001 27537
" />
<path d="M61020 27630
L60983 27612
L60945 27574
L60926 27499
L60926 27368
L60945 27293
L60983 27255
L61020 27237
L61095 27237
L61133 27255
L61170 27293
L61189 27368
L61189 27499
L61170 27574
L61133 27612
L61095 27630
L61020 27630
" />
<path d="M61564 27630
L61339 27630
" />
<path d="M61451 27630
L61451 27237
L61414 27293
L61376 27330
L61339 27349
" />
<path d="M61939 27630
L61714 27630
" />
<path d="M61826 27630
L61826 27237
L61789 27293
L61751 27330
L61714 27349
" />
<text x="64748" y="32980.3"
textLength="1239.13" font-size="524.934" lengthAdjust="spacingAndGlyphs"
text-anchor="middle" opacity="0">Q12</text>
<path d="M64523 32999
L64485 32980
L64448 32942
L64391 32886
L64354 32867
L64316 32867
" />
<path d="M64335 32961
L64298 32942
L64260 32905
L64241 32830
L64241 32699
L64260 32624
L64298 32586
L64335 32567
L64410 32567
L64448 32586
L64485 32624
L64504 32699
L64504 32830
L64485 32905
L64448 32942
L64410 32961
L64335 32961
" />
<path d="M64879 32961
L64654 32961
" />
<path d="M64766 32961
L64766 32567
L64729 32624
L64691 32661
L64654 32680
" />
<path d="M65029 32605
L65047 32586
L65085 32567
L65179 32567
L65216 32586
L65235 32605
L65254 32642
L65254 32680
L65235 32736
L65010 32961
L65254 32961
" />
<text x="68126" y="27649.6"
textLength="1239.13" font-size="524.934" lengthAdjust="spacingAndGlyphs"
text-anchor="middle" opacity="0">Q13</text>
<path d="M67901 27668
L67863 27649
L67826 27612
L67769 27555
L67732 27537
L67694 27537
" />
<path d="M67713 27630
L67676 27612
L67638 27574
L67619 27499
L67619 27368
L67638 27293
L67676 27255
L67713 27237
L67788 27237
L67826 27255
L67863 27293
L67882 27368
L67882 27499
L67863 27574
L67826 27612
L67788 27630
L67713 27630
" />
<path d="M68257 27630
L68032 27630
" />
<path d="M68144 27630
L68144 27237
L68107 27293
L68069 27330
L68032 27349
" />
<path d="M68388 27237
L68632 27237
L68500 27387
L68557 27387
L68594 27405
L68613 27424
L68632 27462
L68632 27555
L68613 27593
L68594 27612
L68557 27630
L68444 27630
L68407 27612
L68388 27593
" />
<text x="71259.8" y="32980.3"
textLength="1239.13" font-size="524.934" lengthAdjust="spacingAndGlyphs"
text-anchor="middle" opacity="0">Q14</text>
<path d="M71034 32999
L70997 32980
L70959 32942
L70903 32886
L70866 32867
L70828 32867
" />
<path d="M70847 32961
L70809 32942
L70772 32905
L70753 32830
L70753 32699
L70772 32624
L70809 32586
L70847 32567
L70922 32567
L70959 32586
L70997 32624
L71016 32699
L71016 32830
L70997 32905
L70959 32942
L70922 32961
L70847 32961
" />
<path d="M71391 32961
L71166 32961
" />
<path d="M71278 32961
L71278 32567
L71241 32624
L71203 32661
L71166 32680
" />
<path d="M71728 32699
L71728 32961
" />
<path d="M71634 32549
L71541 32830
L71784 32830
" />
<text x="74228.3" y="27649.6"
textLength="1239.13" font-size="524.934" lengthAdjust="spacingAndGlyphs"
text-anchor="middle" opacity="0">Q15</text>
<path d="M74003 27668
L73965 27649
L73928 27612
L73872 27555
L73834 27537
L73797 27537
" />
<path d="M73815 27630
L73778 27612
L73740 27574
L73722 27499
L73722 27368
L73740 27293
L73778 27255
L73815 27237
L73890 27237
L73928 27255
L73965 27293
L73984 27368
L73984 27499
L73965 27574
L73928 27612
L73890 27630
L73815 27630
" />
<path d="M74359 27630
L74134 27630
" />
<path d="M74247 27630
L74247 27237
L74209 27293
L74172 27330
L74134 27349
" />
<path d="M74715 27237
L74528 27237
L74509 27424
L74528 27405
L74565 27387
L74659 27387
L74697 27405
L74715 27424
L74734 27462
L74734 27555
L74715 27593
L74697 27612
L74659 27630
L74565 27630
L74528 27612
L74509 27593
" />
<text x="77378" y="32980.3"
textLength="1239.13" font-size="524.934" lengthAdjust="spacingAndGlyphs"
text-anchor="middle" opacity="0">Q16</text>
<path d="M77152 32999
L77115 32980
L77077 32942
L77021 32886
L76984 32867
L76946 32867
" />
<path d="M76965 32961
L76928 32942
L76890 32905
L76871 32830
L76871 32699
L76890 32624
L76928 32586
L76965 32567
L77040 32567
L77077 32586
L77115 32624
L77134 32699
L77134 32830
L77115 32905
L77077 32942
L77040 32961
L76965 32961
" />
<path d="M77509 32961
L77284 32961
" />
<path d="M77396 32961
L77396 32567
L77359 32624
L77321 32661
L77284 32680
" />
<path d="M77846 32567
L77771 32567
L77734 32586
L77715 32605
L77677 32661
L77659 32736
L77659 32886
L77677 32924
L77696 32942
L77734 32961
L77809 32961
L77846 32942
L77865 32924
L77884 32886
L77884 32792
L77865 32755
L77846 32736
L77809 32717
L77734 32717
L77696 32736
L77677 32755
L77659 32792
" />
<g transform="rotate(-90 29637.8 24744.1)">
<text x="29637.8" y="24940.9"
textLength="845.426" font-size="524.934" lengthAdjust="spacingAndGlyphs"
text-anchor="middle" opacity="0">R1</text>
</g>
<path d="M29815 24809
L29628 24940
" />
<path d="M29815 25034
L29422 25034
L29422 24884
L29440 24847
L29459 24828
L29497 24809
L29553 24809
L29590 24828
L29609 24847
L29628 24884
L29628 25034
" />
<path d="M29815 24434
L29815 24659
" />
<path d="M29815 24547
L29422 24547
L29478 24584
L29515 24622
L29534 24659
" />
<g transform="rotate(-90 38889.8 27027.6)">
<text x="38889.8" y="27224.4"
textLength="845.426" font-size="524.934" lengthAdjust="spacingAndGlyphs"
text-anchor="middle" opacity="0">R4</text>
</g>
<path d="M39067 27093
L38880 27224
" />
<path d="M39067 27318
L38674 27318
L38674 27168
L38692 27130
L38711 27111
L38749 27093
L38805 27093
L38842 27111
L38861 27130
L38880 27168
L38880 27318
" />
<path d="M38805 26755
L39067 26755
" />
<path d="M38655 26849
L38936 26943
L38936 26699
" />
<g transform="rotate(-90 42039.4 24665.4)">
<text x="42039.4" y="24862.2"
textLength="845.426" font-size="524.934" lengthAdjust="spacingAndGlyphs"
text-anchor="middle" opacity="0">R5</text>
</g>
<path d="M42217 24730
L42029 24862
" />
<path d="M42217 24955
L41823 24955
L41823 24805
L41842 24768
L41861 24749
L41898 24730
L41955 24730
L41992 24749
L42011 24768
L42029 24805
L42029 24955
" />
<path d="M41823 24374
L41823 24562
L42011 24580
L41992 24562
L41973 24524
L41973 24431
L41992 24393
L42011 24374
L42048 24356
L42142 24356
L42179 24374
L42198 24393
L42217 24431
L42217 24524
L42198 24562
L42179 24580
" />
<g transform="rotate(-90 44992.1 27027.6)">
<text x="44992.1" y="27224.4"
textLength="845.426" font-size="524.934" lengthAdjust="spacingAndGlyphs"
text-anchor="middle" opacity="0">R6</text>
</g>
<path d="M45170 27093
L44982 27224
" />
<path d="M45170 27318
L44776 27318
L44776 27168
L44795 27130
L44814 27111
L44851 27093
L44907 27093
L44945 27111
L44964 27130
L44982 27168
L44982 27318
" />
<path d="M44776 26755
L44776 26830
L44795 26868
L44814 26886
L44870 26924
L44945 26943
L45095 26943
L45132 26924
L45151 26905
L45170 26868
L45170 26793
L45151 26755
L45132 26736
L45095 26718
L45001 26718
L44964 26736
L44945 26755
L44926 26793
L44926 26868
L44945 26905
L44964 26924
L45001 26943
" />
<g transform="rotate(-90 47748 24665.4)">
<text x="47748" y="24862.2"
textLength="845.426" font-size="524.934" lengthAdjust="spacingAndGlyphs"
text-anchor="middle" opacity="0">R7</text>
</g>
<path d="M47926 24730
L47738 24862
" />
<path d="M47926 24955
L47532 24955
L47532 24805
L47551 24768
L47569 24749
L47607 24730
L47663 24730
L47701 24749
L47719 24768
L47738 24805
L47738 24955
" />
<path d="M47532 24599
L47532 24337
L47926 24505
" />
<g transform="rotate(-90 53850.4 24665.4)">
<text x="53850.4" y="24862.2"
textLength="845.426" font-size="524.934" lengthAdjust="spacingAndGlyphs"
text-anchor="middle" opacity="0">R9</text>
</g>
<path d="M54028 24730
L53841 24862
" />
<path d="M54028 24955
L53634 24955
L53634 24805
L53653 24768
L53672 24749
L53709 24730
L53766 24730
L53803 24749
L53822 24768
L53841 24805
L53841 24955
" />
<path d="M54028 24543
L54028 24468
L54009 24431
L53991 24412
L53934 24374
L53859 24356
L53709 24356
L53672 24374
L53653 24393
L53634 24431
L53634 24505
L53653 24543
L53672 24562
L53709 24580
L53803 24580
L53841 24562
L53859 24543
L53878 24505
L53878 24431
L53859 24393
L53841 24374
L53803 24356
" />
<g transform="rotate(-90 57196.9 27027.6)">
<text x="57196.9" y="27224.4"
textLength="1220.38" font-size="524.934" lengthAdjust="spacingAndGlyphs"
text-anchor="middle" opacity="0">R10</text>
</g>
<path d="M57374 27280
L57187 27411
" />
<path d="M57374 27505
L56981 27505
L56981 27355
L57000 27318
L57018 27299
L57056 27280
L57112 27280
L57149 27299
L57168 27318
L57187 27355
L57187 27505
" />
<path d="M57374 26905
L57374 27130
" />
<path d="M57374 27018
L56981 27018
L57037 27055
L57074 27093
L57093 27130
" />
<path d="M56981 26661
L56981 26624
L57000 26586
L57018 26568
L57056 26549
L57131 26530
L57224 26530
L57299 26549
L57337 26568
L57356 26586
L57374 26624
L57374 26661
L57356 26699
L57337 26718
L57299 26736
L57224 26755
L57131 26755
L57056 26736
L57018 26718
L57000 26699
L56981 26661
" />
<g transform="rotate(-90 60346.5 24468.5)">
<text x="60346.5" y="24665.4"
textLength="1220.38" font-size="524.934" lengthAdjust="spacingAndGlyphs"
text-anchor="middle" opacity="0">R11</text>
</g>
<path d="M60524 24721
L60337 24852
" />
<path d="M60524 24946
L60130 24946
L60130 24796
L60149 24759
L60168 24740
L60205 24721
L60262 24721
L60299 24740
L60318 24759
L60337 24796
L60337 24946
" />
<path d="M60524 24346
L60524 24571
" />
<path d="M60524 24459
L60130 24459
L60187 24496
L60224 24534
L60243 24571
" />
<path d="M60524 23971
L60524 24196
" />
<path d="M60524 24084
L60130 24084
L60187 24121
L60224 24159
L60243 24196
" />
<g transform="rotate(-90 63692.9 27027.6)">
<text x="63692.9" y="27224.4"
textLength="1220.38" font-size="524.934" lengthAdjust="spacingAndGlyphs"
text-anchor="middle" opacity="0">R12</text>
</g>
<path d="M63871 27280
L63683 27411
" />
<path d="M63871 27505
L63477 27505
L63477 27355
L63496 27318
L63514 27299
L63552 27280
L63608 27280
L63646 27299
L63664 27318
L63683 27355
L63683 27505
" />
<path d="M63871 26905
L63871 27130
" />
<path d="M63871 27018
L63477 27018
L63533 27055
L63571 27093
L63589 27130
" />
<path d="M63514 26755
L63496 26736
L63477 26699
L63477 26605
L63496 26568
L63514 26549
L63552 26530
L63589 26530
L63646 26549
L63871 26774
L63871 26530
" />
<g transform="rotate(-90 67039.4 24468.5)">
<text x="67039.4" y="24665.4"
textLength="1220.38" font-size="524.934" lengthAdjust="spacingAndGlyphs"
text-anchor="middle" opacity="0">R13</text>
</g>
<path d="M67217 24721
L67029 24852
" />
<path d="M67217 24946
L66823 24946
L66823 24796
L66842 24759
L66861 24740
L66898 24721
L66955 24721
L66992 24740
L67011 24759
L67029 24796
L67029 24946
" />
<path d="M67217 24346
L67217 24571
" />
<path d="M67217 24459
L66823 24459
L66880 24496
L66917 24534
L66936 24571
" />
<path d="M66823 24215
L66823 23971
L66973 24102
L66973 24046
L66992 24009
L67011 23990
L67048 23971
L67142 23971
L67179 23990
L67198 24009
L67217 24046
L67217 24159
L67198 24196
L67179 24215
" />
<g transform="rotate(-90 70189 27027.6)">
<text x="70189" y="27224.4"
textLength="1220.38" font-size="524.934" lengthAdjust="spacingAndGlyphs"
text-anchor="middle" opacity="0">R14</text>
</g>
<path d="M70367 27280
L70179 27411
" />
<path d="M70367 27505
L69973 27505
L69973 27355
L69992 27318
L70010 27299
L70048 27280
L70104 27280
L70142 27299
L70160 27318
L70179 27355
L70179 27505
" />
<path d="M70367 26905
L70367 27130
" />
<path d="M70367 27018
L69973 27018
L70029 27055
L70067 27093
L70085 27130
" />
<path d="M70104 26568
L70367 26568
" />
<path d="M69954 26661
L70235 26755
L70235 26511
" />
<g transform="rotate(-90 73141.7 24468.5)">
<text x="73141.7" y="24665.4"
textLength="1220.38" font-size="524.934" lengthAdjust="spacingAndGlyphs"
text-anchor="middle" opacity="0">R15</text>
</g>
<path d="M73319 24721
L73132 24852
" />
<path d="M73319 24946
L72926 24946
L72926 24796
L72944 24759
L72963 24740
L73001 24721
L73057 24721
L73094 24740
L73113 24759
L73132 24796
L73132 24946
" />
<path d="M73319 24346
L73319 24571
" />
<path d="M73319 24459
L72926 24459
L72982 24496
L73019 24534
L73038 24571
" />
<path d="M72926 23990
L72926 24177
L73113 24196
L73094 24177
L73076 24140
L73076 24046
L73094 24009
L73113 23990
L73151 23971
L73244 23971
L73282 23990
L73301 24009
L73319 24046
L73319 24140
L73301 24177
L73282 24196
" />
<g transform="rotate(-90 76291.3 27027.6)">
<text x="76291.3" y="27224.4"
textLength="1220.38" font-size="524.934" lengthAdjust="spacingAndGlyphs"
text-anchor="middle" opacity="0">R16</text>
</g>
<path d="M76469 27280
L76281 27411
" />
<path d="M76469 27505
L76075 27505
L76075 27355
L76094 27318
L76113 27299
L76150 27280
L76206 27280
L76244 27299
L76263 27318
L76281 27355
L76281 27505
" />
<path d="M76469 26905
L76469 27130
" />
<path d="M76469 27018
L76075 27018
L76131 27055
L76169 27093
L76188 27130
" />
<path d="M76075 26568
L76075 26643
L76094 26680
L76113 26699
L76169 26736
L76244 26755
L76394 26755
L76431 26736
L76450 26718
L76469 26680
L76469 26605
L76450 26568
L76431 26549
L76394 26530
L76300 26530
L76263 26549
L76244 26568
L76225 26605
L76225 26680
L76244 26718
L76263 26736
L76300 26755
" />
<text x="37023.6" y="27649.6"
textLength="864.173" font-size="524.934" lengthAdjust="spacingAndGlyphs"
text-anchor="middle" opacity="0">Q3</text>
<path d="M36986 27668
L36948 27649
L36911 27612
L36854 27555
L36817 27537
L36779 27537
" />
<path d="M36798 27630
L36761 27612
L36723 27574
L36704 27499
L36704 27368
L36723 27293
L36761 27255
L36798 27237
L36873 27237
L36911 27255
L36948 27293
L36967 27368
L36967 27499
L36948 27574
L36911 27612
L36873 27630
L36798 27630
" />
<path d="M37098 27237
L37342 27237
L37211 27387
L37267 27387
L37304 27405
L37323 27424
L37342 27462
L37342 27555
L37323 27593
L37304 27612
L37267 27630
L37154 27630
L37117 27612
L37098 27593
" />
<g transform="rotate(-90 35937 24862.2)">
<text x="35937" y="25059.1"
textLength="845.426" font-size="524.934" lengthAdjust="spacingAndGlyphs"
text-anchor="middle" opacity="0">R3</text>
</g>
<path d="M36115 24927
L35927 25059
" />
<path d="M36115 25152
L35721 25152
L35721 25002
L35740 24965
L35758 24946
L35796 24927
L35852 24927
L35890 24946
L35908 24965
L35927 25002
L35927 25152
" />
<path d="M35721 24796
L35721 24552
L35871 24684
L35871 24627
L35890 24590
L35908 24571
L35946 24552
L36040 24552
L36077 24571
L36096 24590
L36115 24627
L36115 24740
L36096 24777
L36077 24796
" />
<g transform="rotate(-90 39503.9 41830.7)">
<text x="39503.9" y="42027.6"
textLength="751.687" font-size="524.934" lengthAdjust="spacingAndGlyphs"
text-anchor="middle" opacity="0">J2</text>
</g>
<path d="M39288 41961
L39569 41961
L39625 41980
L39663 42018
L39682 42074
L39682 42111
" />
<path d="M39325 41793
L39307 41774
L39288 41736
L39288 41643
L39307 41605
L39325 41586
L39363 41568
L39400 41568
L39457 41586
L39682 41811
L39682 41568
" />
<g transform="rotate(-90 29689 18232.3)">
<text x="29689" y="18429.1"
textLength="751.687" font-size="524.934" lengthAdjust="spacingAndGlyphs"
text-anchor="middle" opacity="0">J1</text>
</g>
<path d="M29473 18363
L29754 18363
L29810 18382
L29848 18419
L29867 18476
L29867 18513
" />
<path d="M29867 17969
L29867 18194
" />
<path d="M29867 18082
L29473 18082
L29529 18119
L29567 18157
L29585 18194
" />
<g transform="rotate(-90 30677.2 44976.4)">
<text x="30677.2" y="45173.2"
textLength="751.687" font-size="524.934" lengthAdjust="spacingAndGlyphs"
text-anchor="middle" opacity="0">J3</text>
</g>
<path d="M30461 45107
L30742 45107
L30799 45126
L30836 45163
L30855 45220
L30855 45257
" />
<path d="M30461 44957
L30461 44713
L30611 44845
L30611 44788
L30630 44751
L30649 44732
L30686 44713
L30780 44713
L30817 44732
L30836 44751
L30855 44788
L30855 44901
L30836 44938
L30817 44957
" />
<g transform="rotate(-90 28692.9 44996.1)">
<text x="28692.9" y="45192.9"
textLength="751.687" font-size="524.934" lengthAdjust="spacingAndGlyphs"
text-anchor="middle" opacity="0">J4</text>
</g>
<path d="M28477 45127
L28758 45127
L28814 45146
L28852 45183
L28871 45239
L28871 45277
" />
<path d="M28608 44771
L28871 44771
" />
<path d="M28458 44864
L28739 44958
L28739 44714
" />
<g >
</g>
</g> 
</svg>
